<svg width="182" height="22" viewBox="0 0 182 22" fill="none" xmlns="http://www.w3.org/2000/svg">
<path fill-rule="evenodd" clip-rule="evenodd" d="M17.3524 3.21273C17.0832 2.91549 16.6212 2.89015 16.3205 3.15614L9.61699 9.08473H0.730877C0.327284 9.08473 0.000106812 9.40808 0.000106812 9.80696V16.1853C0.000106812 16.2528 0.00967407 16.32 0.0285301 16.3848C0.278288 17.2438 0.857029 18.5113 1.80527 19.5919C2.75949 20.6794 4.13745 21.6288 5.96455 21.6909C9.11181 21.798 13.9173 21.7355 15.9226 21.6912C16.3261 21.6823 16.6459 21.3518 16.6369 20.953C16.6278 20.5542 16.2934 20.2382 15.8899 20.2471C13.8886 20.2913 9.11803 20.3529 6.01482 20.2473C4.71668 20.2032 3.69062 19.5358 2.90944 18.6456C2.15716 17.7882 1.67808 16.7718 1.46165 16.08V10.5292H9.89622C10.076 10.5292 10.2495 10.4637 10.3835 10.3452L17.2951 4.23254C17.5959 3.96655 17.6215 3.50997 17.3524 3.21273Z" fill="#00A1FF"/>
<path d="M21.6667 16.9166C25.8089 16.9166 29.1667 13.5587 29.1667 9.41661C29.1667 5.27447 25.8089 1.91661 21.6667 1.91661C17.5246 1.91661 14.1667 5.27447 14.1667 9.41661C14.1667 13.5587 17.5246 16.9166 21.6667 16.9166Z" stroke="#00A1FF" stroke-width="1.5" stroke-linecap="round" stroke-linejoin="round"/>
<path d="M28.275 17.4915C28.7167 18.8248 29.725 18.9581 30.5 17.7915C31.2084 16.7248 30.7417 15.8498 29.4584 15.8498C28.5084 15.8415 27.975 16.5831 28.275 17.4915Z" stroke="#00A1FF" stroke-width="1.5" stroke-linecap="round" stroke-linejoin="round"/>
<path d="M132.554 18.51C130.894 18.51 129.314 17.75 128.414 16.25L129.834 14.97C130.494 16.03 131.574 16.61 132.594 16.61C133.634 16.61 134.374 16.01 134.374 15.27C134.374 14.75 134.074 14.33 133.454 14.03C133.274 13.93 132.834 13.75 132.154 13.49C131.494 13.21 131.034 13.01 130.794 12.87C129.654 12.27 129.074 11.39 129.074 10.21C129.074 9.31 129.414 8.57 130.074 7.99C130.754 7.41 131.654 7.11 132.754 7.11C134.294 7.11 135.474 7.67 136.294 8.77L135.014 10.13C134.374 9.35 133.594 8.95 132.654 8.95C131.754 8.95 131.214 9.47 131.214 10.13C131.214 10.65 131.514 11.05 132.114 11.31L133.214 11.77C133.894 12.05 134.394 12.27 134.734 12.45C135.954 13.09 136.574 13.99 136.574 15.17C136.574 16.11 136.194 16.91 135.454 17.55C134.714 18.19 133.734 18.51 132.554 18.51Z" fill="#00A1FF"/>
<path d="M116.936 18.23H115.056L111.376 7.47H113.696L116.116 15.21L118.896 7.47H120.456L123.316 15.21L125.656 7.47H127.976L124.356 18.23H122.476L119.676 10.59L116.936 18.23Z" fill="#00A1FF"/>
<path d="M107.638 8.97001V7.47001H109.758V18.25H107.638V16.77C106.658 17.93 105.418 18.51 103.958 18.51C102.418 18.51 101.118 17.97 100.098 16.87C99.0776 15.77 98.5776 14.41 98.5776 12.79C98.5776 11.17 99.0776 9.85001 100.098 8.79001C101.118 7.73001 102.418 7.21001 103.958 7.21001C105.418 7.21001 106.658 7.79001 107.638 8.97001ZM104.258 16.49C105.278 16.49 106.098 16.13 106.758 15.43C107.418 14.73 107.738 13.87 107.738 12.85C107.738 11.85 107.418 10.99 106.758 10.29C106.098 9.59001 105.278 9.23001 104.258 9.23001C103.238 9.23001 102.398 9.59001 101.758 10.29C101.118 10.99 100.798 11.85 100.798 12.87C100.798 13.89 101.118 14.75 101.758 15.45C102.398 16.15 103.238 16.49 104.258 16.49Z" fill="#00A1FF"/>
<path d="M87.4492 3.47H92.5492C94.1692 3.47 95.3892 3.93 96.2092 4.85C97.0492 5.75 97.4692 6.85 97.4692 8.15C97.4692 9.45 97.0292 10.53 96.1692 11.43C95.3092 12.33 94.0292 12.77 92.3492 12.77H89.7492V18.25H87.4492V3.47ZM89.7492 10.65H92.4092C94.1892 10.65 95.1292 9.49 95.1292 8.11C95.1292 6.73 94.2292 5.63 92.6492 5.63H89.7492V10.65Z" fill="#00A1FF"/>
<path d="M84.8197 15.89L85.5797 17.61C84.7797 18.21 83.7797 18.51 82.5997 18.51C80.2597 18.51 79.0597 17.05 79.0597 14.39V9.34999H77.1997V7.46999H79.0797V3.64999H81.2597V7.46999H84.9797V9.34999H81.2597V14.43C81.2597 15.81 81.8197 16.49 82.9197 16.49C83.4997 16.49 84.1397 16.29 84.8197 15.89Z" fill="#00A1FF"/>
<path d="M72.2613 18.51C70.6013 18.51 69.0213 17.75 68.1213 16.25L69.5413 14.97C70.2013 16.03 71.2813 16.61 72.3013 16.61C73.3413 16.61 74.0813 16.01 74.0813 15.27C74.0813 14.75 73.7813 14.33 73.1613 14.03C72.9813 13.93 72.5413 13.75 71.8613 13.49C71.2013 13.21 70.7413 13.01 70.5013 12.87C69.3613 12.27 68.7813 11.39 68.7813 10.21C68.7813 9.31 69.1213 8.57 69.7813 7.99C70.4613 7.41 71.3613 7.11 72.4613 7.11C74.0013 7.11 75.1813 7.67 76.0013 8.77L74.7213 10.13C74.0813 9.35 73.3013 8.95 72.3613 8.95C71.4613 8.95 70.9213 9.47 70.9213 10.13C70.9213 10.65 71.2213 11.05 71.8213 11.31L72.9213 11.77C73.6013 12.05 74.1013 12.27 74.4413 12.45C75.6613 13.09 76.2813 13.99 76.2813 15.17C76.2813 16.11 75.9013 16.91 75.1613 17.55C74.4213 18.19 73.4413 18.51 72.2613 18.51Z" fill="#00A1FF"/>
<path d="M55.4917 12.85C55.4917 11.27 56.0317 9.95 57.0917 8.85C58.1717 7.75 59.5317 7.19 61.1917 7.19C62.8517 7.19 64.2117 7.75 65.2717 8.85C66.3517 9.95 66.8917 11.27 66.8917 12.85C66.8917 14.45 66.3517 15.79 65.2717 16.89C64.2117 17.99 62.8517 18.53 61.1917 18.53C59.5317 18.53 58.1717 17.99 57.0917 16.89C56.0317 15.79 55.4917 14.45 55.4917 12.85ZM64.6717 12.85C64.6717 11.87 64.3317 11.01 63.6517 10.31C62.9917 9.59 62.1717 9.23 61.1917 9.23C60.2117 9.23 59.3917 9.59 58.7117 10.31C58.0517 11.01 57.7117 11.87 57.7117 12.85C57.7117 13.85 58.0517 14.71 58.7117 15.41C59.3917 16.11 60.2117 16.47 61.1917 16.47C62.1717 16.47 62.9917 16.11 63.6517 15.41C64.3317 14.71 64.6717 13.85 64.6717 12.85Z" fill="#00A1FF"/>
<path d="M54.6 18.25H44.5V3.47H46.8V16.03H54.6V18.25Z" fill="#00A1FF"/>
</svg>
