<svg xmlns="http://www.w3.org/2000/svg" width="20" height="20" viewBox="0 0 20 20" fill="none">
    <g clip-path="url(#clip0_11_4507)">
        <path fill-rule="evenodd" clip-rule="evenodd"
            d="M14.5217 13.4212C16.7428 11.2001 16.7428 7.59895 14.5217 5.37785C12.3006 3.15674 8.69944 3.15674 6.47833 5.37784C4.25722 7.59895 4.25722 11.2001 6.47833 13.4212L10.5 17.4429L14.5217 13.4212ZM15.4497 4.44977C18.1834 7.18344 18.1834 11.6156 15.4497 14.3493L11.1187 18.6803C10.777 19.022 10.223 19.022 9.88128 18.6803L5.55025 14.3493C2.81658 11.6156 2.81658 7.18344 5.55025 4.44977C8.28392 1.7161 12.7161 1.7161 15.4497 4.44977Z"
            fill="#00A1FF" />
        <path
            d="M10.5 10.875C9.77513 10.875 9.1875 10.2874 9.1875 9.5625C9.1875 8.83763 9.77513 8.25 10.5 8.25C11.2249 8.25 11.8125 8.83763 11.8125 9.5625C11.8125 10.2874 11.2249 10.875 10.5 10.875Z"
            fill="#00A1FF" />
    </g>
    <defs>
        <clipPath id="clip0_11_4507">
            <rect width="20" height="20" fill="white" />
        </clipPath>
    </defs>
</svg>