<svg width="18" height="18" viewBox="0 0 18 18" fill="none" xmlns="http://www.w3.org/2000/svg">
<path d="M16.5 6.75V11.25C16.5 11.4225 16.5 11.5875 16.485 11.7525C16.455 11.7075 16.4175 11.6625 16.38 11.625C16.3725 11.6175 16.365 11.6025 16.3575 11.595C15.75 10.92 14.8575 10.5 13.875 10.5C12.93 10.5 12.0675 10.89 11.4525 11.52C10.86 12.1275 10.5 12.96 10.5 13.875C10.5 14.505 10.68 15.105 10.9875 15.615C11.1525 15.8925 11.3625 16.1475 11.6025 16.3575C11.6175 16.365 11.625 16.3725 11.6325 16.38C11.67 16.4175 11.7075 16.4475 11.7525 16.485C11.595 16.5 11.4225 16.5 11.25 16.5H6.75C3 16.5 1.5 15 1.5 11.25V6.75C1.5 3 3 1.5 6.75 1.5H11.25C15 1.5 16.5 3 16.5 6.75Z" stroke="#2A3547" stroke-width="1.5" stroke-linecap="round" stroke-linejoin="round"/>
<path d="M1.89014 5.33249H16.1101" stroke="#2A3547" stroke-width="1.5" stroke-linecap="round" stroke-linejoin="round"/>
<path d="M6.39014 1.58249V5.22748" stroke="#2A3547" stroke-width="1.5" stroke-linecap="round" stroke-linejoin="round"/>
<path d="M11.6104 1.58249V4.89001" stroke="#2A3547" stroke-width="1.5" stroke-linecap="round" stroke-linejoin="round"/>
<path d="M17.25 13.875C17.25 14.145 17.22 14.4075 17.1525 14.6625C17.07 15 16.935 15.3225 16.7625 15.615C16.1775 16.59 15.105 17.25 13.875 17.25C13.065 17.25 12.33 16.965 11.76 16.485C11.7525 16.485 11.7525 16.485 11.7525 16.485C11.7075 16.4475 11.67 16.4175 11.6325 16.38C11.625 16.3725 11.6175 16.365 11.6025 16.3575C11.3625 16.1475 11.1525 15.8925 10.9875 15.615C10.68 15.105 10.5 14.505 10.5 13.875C10.5 12.96 10.86 12.1275 11.4525 11.52C12.0675 10.89 12.93 10.5 13.875 10.5C14.8575 10.5 15.75 10.92 16.3575 11.595C16.365 11.6025 16.3725 11.6175 16.38 11.625C16.4175 11.6625 16.455 11.7075 16.485 11.7525C16.965 12.33 17.25 13.0725 17.25 13.875Z" stroke="#2A3547" stroke-width="1.5" stroke-miterlimit="10" stroke-linecap="round" stroke-linejoin="round"/>
<path d="M15.1352 13.86H12.6152" stroke="#2A3547" stroke-width="1.5" stroke-miterlimit="10" stroke-linecap="round" stroke-linejoin="round"/>
<path d="M13.875 12.63V15.15" stroke="#2A3547" stroke-width="1.5" stroke-miterlimit="10" stroke-linecap="round" stroke-linejoin="round"/>
</svg>
