<svg width="335" height="304" viewBox="0 0 335 304" fill="none" xmlns="http://www.w3.org/2000/svg">
<g filter="url(#filter0_d_7_2552)">
<rect x="4" y="3" width="327" height="296" rx="24" fill="white"/>
<path d="M36.544 52H34.4474L39.1584 38.9091H41.4403L46.1513 52H44.0547L40.3537 41.2869H40.2514L36.544 52ZM36.8956 46.8736H43.6967V48.5355H36.8956V46.8736ZM47.8659 55.6818C47.5804 55.6818 47.3205 55.6584 47.0861 55.6115C46.8517 55.5689 46.677 55.522 46.562 55.4709L47.0222 53.9048C47.3716 53.9986 47.6827 54.0391 47.9554 54.0263C48.2282 54.0135 48.4689 53.9112 48.6777 53.7195C48.8908 53.5277 49.0783 53.2145 49.2402 52.7798L49.4767 52.1278L45.8844 42.1818H47.9299L50.4164 49.8011H50.5186L53.0051 42.1818H55.057L51.0108 53.3104C50.8233 53.8217 50.5847 54.2543 50.2949 54.608C50.0051 54.9659 49.66 55.2344 49.2594 55.4134C48.8588 55.5923 48.3944 55.6818 47.8659 55.6818ZM63.0726 47.9283V42.1818H64.9902V52H63.111V50.2997H63.0087C62.7828 50.8239 62.4206 51.2607 61.9221 51.6101C61.4277 51.9553 60.812 52.1278 60.0748 52.1278C59.4441 52.1278 58.8858 51.9893 58.4 51.7124C57.9185 51.4311 57.5392 51.0156 57.2623 50.4659C56.9895 49.9162 56.8532 49.2365 56.8532 48.4268V42.1818H58.7644V48.1967C58.7644 48.8658 58.9498 49.3984 59.3205 49.7947C59.6912 50.1911 60.1728 50.3892 60.7651 50.3892C61.123 50.3892 61.4789 50.2997 61.8326 50.1207C62.1905 49.9418 62.4867 49.6712 62.7211 49.3089C62.9597 48.9467 63.0769 48.4865 63.0726 47.9283ZM71.2337 52.1918C70.4411 52.1918 69.7337 51.9893 69.1115 51.5845C68.4936 51.1754 68.0078 50.5937 67.6541 49.8395C67.3047 49.081 67.13 48.1712 67.13 47.1101C67.13 46.049 67.3068 45.1413 67.6605 44.3871C68.0185 43.6328 68.5085 43.0554 69.1307 42.6548C69.7528 42.2543 70.4581 42.054 71.2464 42.054C71.8558 42.054 72.3459 42.1562 72.7166 42.3608C73.0916 42.5611 73.3814 42.7955 73.5859 43.0639C73.7947 43.3324 73.9567 43.5689 74.0717 43.7734H74.1868V38.9091H76.098V52H74.2315V50.4723H74.0717C73.9567 50.6811 73.7905 50.9197 73.5732 51.1882C73.3601 51.4567 73.0661 51.6911 72.6911 51.8913C72.3161 52.0916 71.8303 52.1918 71.2337 52.1918ZM71.6555 50.5618C72.2053 50.5618 72.6697 50.4169 73.049 50.1271C73.4325 49.8331 73.7223 49.4261 73.9183 48.9062C74.1186 48.3864 74.2188 47.7812 74.2188 47.0909C74.2188 46.4091 74.1207 45.8125 73.9247 45.3011C73.7287 44.7898 73.4411 44.3913 73.0618 44.1058C72.6825 43.8203 72.2138 43.6776 71.6555 43.6776C71.0803 43.6776 70.6009 43.8267 70.2173 44.125C69.8338 44.4233 69.544 44.8303 69.348 45.3459C69.1563 45.8615 69.0604 46.4432 69.0604 47.0909C69.0604 47.7472 69.1584 48.3374 69.3544 48.8615C69.5504 49.3857 69.8402 49.8011 70.2237 50.108C70.6115 50.4105 71.0888 50.5618 71.6555 50.5618ZM81.6831 52.2173C81.0609 52.2173 80.4984 52.1023 79.9956 51.8722C79.4927 51.6378 79.0943 51.299 78.8002 50.8558C78.5105 50.4126 78.3656 49.8693 78.3656 49.2259C78.3656 48.6719 78.4721 48.2159 78.6852 47.858C78.8983 47.5 79.1859 47.2166 79.5481 47.0078C79.9103 46.799 80.3152 46.6413 80.7626 46.5348C81.21 46.4283 81.666 46.3473 82.1305 46.2919C82.7186 46.2237 83.1958 46.1683 83.5623 46.1257C83.9288 46.0788 84.1951 46.0043 84.3613 45.902C84.5275 45.7997 84.6106 45.6335 84.6106 45.4034V45.3587C84.6106 44.8004 84.4529 44.3679 84.1376 44.0611C83.8265 43.7543 83.362 43.6009 82.7441 43.6009C82.1007 43.6009 81.5936 43.7436 81.2228 44.0291C80.8564 44.3104 80.6028 44.6236 80.4622 44.9688L78.666 44.5597C78.8791 43.9631 79.1902 43.4815 79.5993 43.1151C80.0126 42.7443 80.4877 42.4759 81.0247 42.3097C81.5616 42.1392 82.1262 42.054 82.7186 42.054C83.1106 42.054 83.5261 42.1009 83.965 42.1946C84.4082 42.2841 84.8216 42.4503 85.2051 42.6932C85.5929 42.9361 85.9103 43.2834 86.1575 43.7351C86.4047 44.1825 86.5282 44.7642 86.5282 45.4801V52H84.6618V50.6577H84.5851C84.4615 50.9048 84.2761 51.1477 84.0289 51.3864C83.7818 51.625 83.4643 51.8232 83.0765 51.9808C82.6887 52.1385 82.2243 52.2173 81.6831 52.2173ZM82.0985 50.6832C82.627 50.6832 83.0787 50.5788 83.4537 50.37C83.8329 50.1612 84.1206 49.8885 84.3166 49.5518C84.5169 49.2109 84.617 48.8466 84.617 48.4588V47.1932C84.5488 47.2614 84.4167 47.3253 84.2207 47.3849C84.0289 47.4403 83.8095 47.4893 83.5623 47.532C83.3152 47.5703 83.0744 47.6065 82.84 47.6406C82.6056 47.6705 82.4096 47.696 82.252 47.7173C81.8812 47.7642 81.5424 47.843 81.2356 47.9538C80.9331 48.0646 80.6902 48.2244 80.5069 48.4332C80.3279 48.6378 80.2385 48.9105 80.2385 49.2514C80.2385 49.7244 80.4132 50.0824 80.7626 50.3253C81.112 50.5639 81.5574 50.6832 82.0985 50.6832ZM89.0739 52V42.1818H90.9084V43.7798H91.0298C91.2344 43.2386 91.5689 42.8168 92.0334 42.5142C92.4979 42.2074 93.054 42.054 93.7017 42.054C94.358 42.054 94.9077 42.2074 95.3509 42.5142C95.7983 42.821 96.1286 43.2429 96.3416 43.7798H96.4439C96.6783 43.2557 97.0511 42.8381 97.5625 42.527C98.0739 42.2116 98.6832 42.054 99.3906 42.054C100.281 42.054 101.008 42.3331 101.57 42.8913C102.137 43.4496 102.42 44.2912 102.42 45.4162V52H100.509V45.5952C100.509 44.9304 100.328 44.4489 99.9659 44.1506C99.6037 43.8523 99.1712 43.7031 98.6683 43.7031C98.0462 43.7031 97.5625 43.8949 97.2173 44.2784C96.8722 44.6577 96.6996 45.1456 96.6996 45.7422V52H94.7947V45.4737C94.7947 44.9411 94.6286 44.5128 94.2962 44.1889C93.9638 43.8651 93.5313 43.7031 92.9986 43.7031C92.6364 43.7031 92.3018 43.799 91.995 43.9908C91.6925 44.1783 91.4474 44.4403 91.2599 44.777C91.0767 45.1136 90.9851 45.5036 90.9851 45.9467V52H89.0739ZM109.118 52.1982C108.197 52.1982 107.394 51.9872 106.708 51.5653C106.022 51.1435 105.489 50.5533 105.11 49.7947C104.731 49.0362 104.541 48.1499 104.541 47.1357C104.541 46.1172 104.731 45.2266 105.11 44.4638C105.489 43.701 106.022 43.1087 106.708 42.6868C107.394 42.2649 108.197 42.054 109.118 42.054C110.038 42.054 110.841 42.2649 111.528 42.6868C112.214 43.1087 112.746 43.701 113.126 44.4638C113.505 45.2266 113.694 46.1172 113.694 47.1357C113.694 48.1499 113.505 49.0362 113.126 49.7947C112.746 50.5533 112.214 51.1435 111.528 51.5653C110.841 51.9872 110.038 52.1982 109.118 52.1982ZM109.124 50.5938C109.721 50.5938 110.215 50.4361 110.607 50.1207C110.999 49.8054 111.289 49.3857 111.476 48.8615C111.668 48.3374 111.764 47.7599 111.764 47.1293C111.764 46.5028 111.668 45.9276 111.476 45.4034C111.289 44.875 110.999 44.451 110.607 44.1314C110.215 43.8118 109.721 43.652 109.124 43.652C108.523 43.652 108.025 43.8118 107.628 44.1314C107.236 44.451 106.944 44.875 106.753 45.4034C106.565 45.9276 106.471 46.5028 106.471 47.1293C106.471 47.7599 106.565 48.3374 106.753 48.8615C106.944 49.3857 107.236 49.8054 107.628 50.1207C108.025 50.4361 108.523 50.5938 109.124 50.5938ZM123.185 44.5788L121.453 44.8857C121.38 44.6641 121.265 44.4531 121.108 44.2528C120.954 44.0526 120.745 43.8885 120.481 43.7607C120.217 43.6328 119.887 43.5689 119.49 43.5689C118.949 43.5689 118.498 43.6903 118.135 43.9332C117.773 44.1719 117.592 44.4808 117.592 44.8601C117.592 45.1882 117.713 45.4524 117.956 45.6527C118.199 45.853 118.591 46.017 119.132 46.1449L120.692 46.5028C121.596 46.7116 122.269 47.0334 122.712 47.468C123.155 47.9027 123.377 48.4673 123.377 49.1619C123.377 49.75 123.206 50.2741 122.865 50.7344C122.529 51.1903 122.058 51.5483 121.453 51.8082C120.852 52.0682 120.155 52.1982 119.363 52.1982C118.263 52.1982 117.366 51.9638 116.672 51.495C115.977 51.022 115.551 50.3509 115.393 49.4815L117.24 49.2003C117.355 49.6818 117.592 50.0462 117.95 50.2933C118.308 50.5362 118.775 50.6577 119.35 50.6577C119.976 50.6577 120.477 50.5277 120.852 50.2678C121.227 50.0036 121.414 49.6818 121.414 49.3026C121.414 48.9957 121.299 48.7379 121.069 48.5291C120.843 48.3203 120.496 48.1626 120.027 48.0561L118.365 47.6918C117.449 47.483 116.772 47.1506 116.333 46.6946C115.898 46.2386 115.681 45.6612 115.681 44.9624C115.681 44.3828 115.843 43.8757 116.167 43.4411C116.49 43.0064 116.938 42.6676 117.509 42.4247C118.08 42.1776 118.734 42.054 119.471 42.054C120.532 42.054 121.368 42.2841 121.977 42.7443C122.586 43.2003 122.989 43.8118 123.185 44.5788ZM133.099 52.2173C132.477 52.2173 131.914 52.1023 131.412 51.8722C130.909 51.6378 130.51 51.299 130.216 50.8558C129.926 50.4126 129.782 49.8693 129.782 49.2259C129.782 48.6719 129.888 48.2159 130.101 47.858C130.314 47.5 130.602 47.2166 130.964 47.0078C131.326 46.799 131.731 46.6413 132.179 46.5348C132.626 46.4283 133.082 46.3473 133.547 46.2919C134.135 46.2237 134.612 46.1683 134.978 46.1257C135.345 46.0788 135.611 46.0043 135.777 45.902C135.944 45.7997 136.027 45.6335 136.027 45.4034V45.3587C136.027 44.8004 135.869 44.3679 135.554 44.0611C135.243 43.7543 134.778 43.6009 134.16 43.6009C133.517 43.6009 133.01 43.7436 132.639 44.0291C132.272 44.3104 132.019 44.6236 131.878 44.9688L130.082 44.5597C130.295 43.9631 130.606 43.4815 131.015 43.1151C131.429 42.7443 131.904 42.4759 132.441 42.3097C132.978 42.1392 133.542 42.054 134.135 42.054C134.527 42.054 134.942 42.1009 135.381 42.1946C135.824 42.2841 136.238 42.4503 136.621 42.6932C137.009 42.9361 137.326 43.2834 137.574 43.7351C137.821 44.1825 137.944 44.7642 137.944 45.4801V52H136.078V50.6577H136.001C135.877 50.9048 135.692 51.1477 135.445 51.3864C135.198 51.625 134.88 51.8232 134.493 51.9808C134.105 52.1385 133.64 52.2173 133.099 52.2173ZM133.515 50.6832C134.043 50.6832 134.495 50.5788 134.87 50.37C135.249 50.1612 135.537 49.8885 135.733 49.5518C135.933 49.2109 136.033 48.8466 136.033 48.4588V47.1932C135.965 47.2614 135.833 47.3253 135.637 47.3849C135.445 47.4403 135.225 47.4893 134.978 47.532C134.731 47.5703 134.49 47.6065 134.256 47.6406C134.022 47.6705 133.826 47.696 133.668 47.7173C133.297 47.7642 132.958 47.843 132.652 47.9538C132.349 48.0646 132.106 48.2244 131.923 48.4332C131.744 48.6378 131.654 48.9105 131.654 49.2514C131.654 49.7244 131.829 50.0824 132.179 50.3253C132.528 50.5639 132.973 50.6832 133.515 50.6832ZM274.55 52.2173C273.928 52.2173 273.366 52.1023 272.863 51.8722C272.36 51.6378 271.961 51.299 271.667 50.8558C271.378 50.4126 271.233 49.8693 271.233 49.2259C271.233 48.6719 271.339 48.2159 271.552 47.858C271.765 47.5 272.053 47.2166 272.415 47.0078C272.778 46.799 273.182 46.6413 273.63 46.5348C274.077 46.4283 274.533 46.3473 274.998 46.2919C275.586 46.2237 276.063 46.1683 276.43 46.1257C276.796 46.0788 277.062 46.0043 277.229 45.902C277.395 45.7997 277.478 45.6335 277.478 45.4034V45.3587C277.478 44.8004 277.32 44.3679 277.005 44.0611C276.694 43.7543 276.229 43.6009 275.611 43.6009C274.968 43.6009 274.461 43.7436 274.09 44.0291C273.724 44.3104 273.47 44.6236 273.329 44.9688L271.533 44.5597C271.746 43.9631 272.057 43.4815 272.466 43.1151C272.88 42.7443 273.355 42.4759 273.892 42.3097C274.429 42.1392 274.993 42.054 275.586 42.054C275.978 42.054 276.393 42.1009 276.832 42.1946C277.275 42.2841 277.689 42.4503 278.072 42.6932C278.46 42.9361 278.778 43.2834 279.025 43.7351C279.272 44.1825 279.395 44.7642 279.395 45.4801V52H277.529V50.6577H277.452C277.329 50.9048 277.143 51.1477 276.896 51.3864C276.649 51.625 276.331 51.8232 275.944 51.9808C275.556 52.1385 275.091 52.2173 274.55 52.2173ZM274.966 50.6832C275.494 50.6832 275.946 50.5788 276.321 50.37C276.7 50.1612 276.988 49.8885 277.184 49.5518C277.384 49.2109 277.484 48.8466 277.484 48.4588V47.1932C277.416 47.2614 277.284 47.3253 277.088 47.3849C276.896 47.4403 276.677 47.4893 276.43 47.532C276.182 47.5703 275.942 47.6065 275.707 47.6406C275.473 47.6705 275.277 47.696 275.119 47.7173C274.748 47.7642 274.41 47.843 274.103 47.9538C273.8 48.0646 273.557 48.2244 273.374 48.4332C273.195 48.6378 273.106 48.9105 273.106 49.2514C273.106 49.7244 273.28 50.0824 273.63 50.3253C273.979 50.5639 274.425 50.6832 274.966 50.6832ZM35.2848 77V67.1818H37.1321V68.7415H37.2344C37.4134 68.2131 37.7287 67.7976 38.1804 67.495C38.6364 67.1882 39.152 67.0348 39.7273 67.0348C39.8466 67.0348 39.9872 67.0391 40.1491 67.0476C40.3153 67.0561 40.4453 67.0668 40.5391 67.0795V68.9077C40.4624 68.8864 40.326 68.8629 40.13 68.8374C39.9339 68.8075 39.7379 68.7926 39.5419 68.7926C39.0902 68.7926 38.6875 68.8885 38.3338 69.0803C37.9844 69.2678 37.7074 69.5298 37.5028 69.8665C37.2983 70.1989 37.196 70.5781 37.196 71.0043V77H35.2848ZM46.073 77.1982C45.1056 77.1982 44.2725 76.9915 43.5737 76.5781C42.8791 76.1605 42.3422 75.5746 41.9629 74.8203C41.5879 74.0618 41.4004 73.1733 41.4004 72.1548C41.4004 71.1491 41.5879 70.2628 41.9629 69.4957C42.3422 68.7287 42.8706 68.13 43.5481 67.6996C44.2299 67.2692 45.0268 67.054 45.9387 67.054C46.4927 67.054 47.0297 67.1456 47.5495 67.3288C48.0694 67.5121 48.536 67.7997 48.9494 68.1918C49.3627 68.5838 49.6887 69.093 49.9274 69.7195C50.166 70.3416 50.2853 71.098 50.2853 71.9886V72.6662H42.4806V71.2344H48.4125C48.4125 70.7315 48.3102 70.2862 48.1056 69.8984C47.9011 69.5064 47.6135 69.1974 47.2427 68.9716C46.8762 68.7457 46.4458 68.6328 45.9515 68.6328C45.4146 68.6328 44.9458 68.7649 44.5453 69.0291C44.149 69.2891 43.8422 69.63 43.6248 70.0518C43.4118 70.4695 43.3052 70.9233 43.3052 71.4134V72.532C43.3052 73.1882 43.4203 73.7464 43.6504 74.2067C43.8848 74.6669 44.2108 75.0185 44.6284 75.2614C45.046 75.5 45.5339 75.6193 46.0922 75.6193C46.4544 75.6193 46.7846 75.5682 47.0829 75.4659C47.3812 75.3594 47.639 75.2017 47.8564 74.9929C48.0737 74.7841 48.2399 74.5263 48.3549 74.2195L50.1639 74.5455C50.019 75.0781 49.7591 75.5447 49.3841 75.9453C49.0133 76.3416 48.5467 76.6506 47.9842 76.8722C47.426 77.0895 46.7889 77.1982 46.073 77.1982ZM58.6254 72.9283V67.1818H60.543V77H58.6637V75.2997H58.5614C58.3356 75.8239 57.9734 76.2607 57.4748 76.6101C56.9805 76.9553 56.3647 77.1278 55.6275 77.1278C54.9968 77.1278 54.4386 76.9893 53.9528 76.7124C53.4712 76.4311 53.092 76.0156 52.815 75.4659C52.5423 74.9162 52.4059 74.2365 52.4059 73.4268V67.1818H54.3171V73.1967C54.3171 73.8658 54.5025 74.3984 54.8732 74.7947C55.244 75.1911 55.7255 75.3892 56.3178 75.3892C56.6758 75.3892 57.0316 75.2997 57.3853 75.1207C57.7433 74.9418 58.0394 74.6712 58.2738 74.3089C58.5124 73.9467 58.6296 73.4865 58.6254 72.9283ZM65.0222 71.1705V77H63.111V67.1818H64.9455V68.7798H65.0669C65.2928 68.2599 65.6465 67.8423 66.128 67.527C66.6138 67.2116 67.2253 67.054 67.9625 67.054C68.6316 67.054 69.2175 67.1946 69.7203 67.4759C70.2232 67.7528 70.6131 68.1662 70.8901 68.7159C71.1671 69.2656 71.3056 69.9453 71.3056 70.755V77H69.3944V70.9851C69.3944 70.2734 69.209 69.7173 68.8382 69.3168C68.4675 68.9119 67.9583 68.7095 67.3105 68.7095C66.8674 68.7095 66.4732 68.8054 66.128 68.9972C65.7871 69.1889 65.5165 69.4702 65.3162 69.8409C65.1202 70.2074 65.0222 70.6506 65.0222 71.1705ZM73.8688 77V67.1818H75.78V77H73.8688ZM74.834 65.6669C74.5016 65.6669 74.2161 65.5561 73.9775 65.3345C73.7431 65.1087 73.6259 64.8402 73.6259 64.5291C73.6259 64.2138 73.7431 63.9453 73.9775 63.7237C74.2161 63.4979 74.5016 63.3849 74.834 63.3849C75.1664 63.3849 75.4498 63.4979 75.6841 63.7237C75.9228 63.9453 76.0421 64.2138 76.0421 64.5291C76.0421 64.8402 75.9228 65.1087 75.6841 65.3345C75.4498 65.5561 75.1664 65.6669 74.834 65.6669ZM78.3512 77V67.1818H80.1985V68.7415H80.3008C80.4798 68.2131 80.7951 67.7976 81.2468 67.495C81.7028 67.1882 82.2184 67.0348 82.7937 67.0348C82.913 67.0348 83.0536 67.0391 83.2156 67.0476C83.3817 67.0561 83.5117 67.0668 83.6055 67.0795V68.9077C83.5288 68.8864 83.3924 68.8629 83.1964 68.8374C83.0004 68.8075 82.8043 68.7926 82.6083 68.7926C82.1566 68.7926 81.7539 68.8885 81.4002 69.0803C81.0508 69.2678 80.7738 69.5298 80.5692 69.8665C80.3647 70.1989 80.2624 70.5781 80.2624 71.0043V77H78.3512ZM92.6167 69.5788L90.8844 69.8857C90.812 69.6641 90.6969 69.4531 90.5392 69.2528C90.3858 69.0526 90.177 68.8885 89.9128 68.7607C89.6486 68.6328 89.3184 68.5689 88.9221 68.5689C88.3809 68.5689 87.9292 68.6903 87.5669 68.9332C87.2047 69.1719 87.0236 69.4808 87.0236 69.8601C87.0236 70.1882 87.1451 70.4524 87.388 70.6527C87.6309 70.853 88.0229 71.017 88.5641 71.1449L90.1238 71.5028C91.0272 71.7116 91.7005 72.0334 92.1436 72.468C92.5868 72.9027 92.8084 73.4673 92.8084 74.1619C92.8084 74.75 92.638 75.2741 92.2971 75.7344C91.9604 76.1903 91.4895 76.5483 90.8844 76.8082C90.2836 77.0682 89.5868 77.1982 88.7942 77.1982C87.6948 77.1982 86.7978 76.9638 86.1032 76.495C85.4086 76.022 84.9824 75.3509 84.8248 74.4815L86.6721 74.2003C86.7871 74.6818 87.0236 75.0462 87.3816 75.2933C87.7395 75.5362 88.2061 75.6577 88.7814 75.6577C89.4078 75.6577 89.9086 75.5277 90.2836 75.2678C90.6586 75.0036 90.8461 74.6818 90.8461 74.3026C90.8461 73.9957 90.731 73.7379 90.5009 73.5291C90.275 73.3203 89.9277 73.1626 89.459 73.0561L87.7971 72.6918C86.8809 72.483 86.2033 72.1506 85.7644 71.6946C85.3297 71.2386 85.1124 70.6612 85.1124 69.9624C85.1124 69.3828 85.2743 68.8757 85.5982 68.4411C85.9221 68.0064 86.3695 67.6676 86.9405 67.4247C87.5115 67.1776 88.1657 67.054 88.9029 67.054C89.964 67.054 90.7992 67.2841 91.4086 67.7443C92.0179 68.2003 92.4206 68.8118 92.6167 69.5788ZM99.1413 77.1982C98.174 77.1982 97.3409 76.9915 96.642 76.5781C95.9474 76.1605 95.4105 75.5746 95.0312 74.8203C94.6562 74.0618 94.4688 73.1733 94.4688 72.1548C94.4688 71.1491 94.6562 70.2628 95.0312 69.4957C95.4105 68.7287 95.9389 68.13 96.6165 67.6996C97.2983 67.2692 98.0952 67.054 99.0071 67.054C99.5611 67.054 100.098 67.1456 100.618 67.3288C101.138 67.5121 101.604 67.7997 102.018 68.1918C102.431 68.5838 102.757 69.093 102.996 69.7195C103.234 70.3416 103.354 71.098 103.354 71.9886V72.6662H95.549V71.2344H101.481C101.481 70.7315 101.379 70.2862 101.174 69.8984C100.969 69.5064 100.682 69.1974 100.311 68.9716C99.9446 68.7457 99.5142 68.6328 99.0199 68.6328C98.483 68.6328 98.0142 68.7649 97.6136 69.0291C97.2173 69.2891 96.9105 69.63 96.6932 70.0518C96.4801 70.4695 96.3736 70.9233 96.3736 71.4134V72.532C96.3736 73.1882 96.4886 73.7464 96.7188 74.2067C96.9531 74.6669 97.2791 75.0185 97.6967 75.2614C98.1143 75.5 98.6023 75.6193 99.1605 75.6193C99.5227 75.6193 99.853 75.5682 100.151 75.4659C100.45 75.3594 100.707 75.2017 100.925 74.9929C101.142 74.7841 101.308 74.5263 101.423 74.2195L103.232 74.5455C103.087 75.0781 102.827 75.5447 102.452 75.9453C102.082 76.3416 101.615 76.6506 101.053 76.8722C100.494 77.0895 99.8572 77.1982 99.1413 77.1982ZM114.374 77.1982C113.423 77.1982 112.605 76.983 111.919 76.5526C111.237 76.1179 110.713 75.5192 110.347 74.7564C109.98 73.9936 109.797 73.12 109.797 72.1357C109.797 71.1385 109.984 70.2585 110.359 69.4957C110.734 68.7287 111.263 68.13 111.945 67.6996C112.626 67.2692 113.43 67.054 114.354 67.054C115.1 67.054 115.765 67.1925 116.349 67.4695C116.933 67.7422 117.403 68.1257 117.761 68.62C118.124 69.1143 118.339 69.6918 118.407 70.3523H116.547C116.445 69.892 116.21 69.4957 115.844 69.1634C115.482 68.831 114.996 68.6648 114.386 68.6648C113.854 68.6648 113.387 68.8054 112.987 69.0866C112.59 69.3636 112.281 69.7599 112.06 70.2756C111.838 70.7869 111.727 71.392 111.727 72.0909C111.727 72.8068 111.836 73.4247 112.053 73.9446C112.271 74.4645 112.577 74.8672 112.974 75.1527C113.374 75.4382 113.845 75.581 114.386 75.581C114.749 75.581 115.077 75.5149 115.371 75.3828C115.669 75.2464 115.918 75.0526 116.119 74.8011C116.323 74.5497 116.466 74.2472 116.547 73.8935H118.407C118.339 74.5284 118.132 75.0952 117.787 75.5938C117.442 76.0923 116.979 76.4844 116.4 76.7699C115.825 77.0554 115.149 77.1982 114.374 77.1982ZM124.586 77.1982C123.666 77.1982 122.863 76.9872 122.177 76.5653C121.491 76.1435 120.958 75.5533 120.579 74.7947C120.199 74.0362 120.01 73.1499 120.01 72.1357C120.01 71.1172 120.199 70.2266 120.579 69.4638C120.958 68.701 121.491 68.1087 122.177 67.6868C122.863 67.2649 123.666 67.054 124.586 67.054C125.507 67.054 126.31 67.2649 126.996 67.6868C127.682 68.1087 128.215 68.701 128.594 69.4638C128.974 70.2266 129.163 71.1172 129.163 72.1357C129.163 73.1499 128.974 74.0362 128.594 74.7947C128.215 75.5533 127.682 76.1435 126.996 76.5653C126.31 76.9872 125.507 77.1982 124.586 77.1982ZM124.593 75.5938C125.189 75.5938 125.684 75.4361 126.076 75.1207C126.468 74.8054 126.758 74.3857 126.945 73.8615C127.137 73.3374 127.233 72.7599 127.233 72.1293C127.233 71.5028 127.137 70.9276 126.945 70.4034C126.758 69.875 126.468 69.451 126.076 69.1314C125.684 68.8118 125.189 68.652 124.593 68.652C123.992 68.652 123.493 68.8118 123.097 69.1314C122.705 69.451 122.413 69.875 122.221 70.4034C122.034 70.9276 121.94 71.5028 121.94 72.1293C121.94 72.7599 122.034 73.3374 122.221 73.8615C122.413 74.3857 122.705 74.8054 123.097 75.1207C123.493 75.4361 123.992 75.5938 124.593 75.5938ZM133.208 71.1705V77H131.297V67.1818H133.131V68.7798H133.252C133.478 68.2599 133.832 67.8423 134.314 67.527C134.799 67.2116 135.411 67.054 136.148 67.054C136.817 67.054 137.403 67.1946 137.906 67.4759C138.409 67.7528 138.799 68.1662 139.076 68.7159C139.353 69.2656 139.491 69.9453 139.491 70.755V77H137.58V70.9851C137.58 70.2734 137.395 69.7173 137.024 69.3168C136.653 68.9119 136.144 68.7095 135.496 68.7095C135.053 68.7095 134.659 68.8054 134.314 68.9972C133.973 69.1889 133.702 69.4702 133.502 69.8409C133.306 70.2074 133.208 70.6506 133.208 71.1705ZM154.175 69.5788L152.443 69.8857C152.371 69.6641 152.256 69.4531 152.098 69.2528C151.944 69.0526 151.736 68.8885 151.471 68.7607C151.207 68.6328 150.877 68.5689 150.481 68.5689C149.939 68.5689 149.488 68.6903 149.126 68.9332C148.763 69.1719 148.582 69.4808 148.582 69.8601C148.582 70.1882 148.704 70.4524 148.947 70.6527C149.189 70.853 149.581 71.017 150.123 71.1449L151.682 71.5028C152.586 71.7116 153.259 72.0334 153.702 72.468C154.145 72.9027 154.367 73.4673 154.367 74.1619C154.367 74.75 154.197 75.2741 153.856 75.7344C153.519 76.1903 153.048 76.5483 152.443 76.8082C151.842 77.0682 151.145 77.1982 150.353 77.1982C149.253 77.1982 148.356 76.9638 147.662 76.495C146.967 76.022 146.541 75.3509 146.383 74.4815L148.231 74.2003C148.346 74.6818 148.582 75.0462 148.94 75.2933C149.298 75.5362 149.765 75.6577 150.34 75.6577C150.966 75.6577 151.467 75.5277 151.842 75.2678C152.217 75.0036 152.405 74.6818 152.405 74.3026C152.405 73.9957 152.29 73.7379 152.059 73.5291C151.834 73.3203 151.486 73.1626 151.018 73.0561L149.356 72.6918C148.439 72.483 147.762 72.1506 147.323 71.6946C146.888 71.2386 146.671 70.6612 146.671 69.9624C146.671 69.3828 146.833 68.8757 147.157 68.4411C147.481 68.0064 147.928 67.6676 148.499 67.4247C149.07 67.1776 149.724 67.054 150.461 67.054C151.523 67.054 152.358 67.2841 152.967 67.7443C153.577 68.2003 153.979 68.8118 154.175 69.5788ZM162.688 72.9283V67.1818H164.605V77H162.726V75.2997H162.624C162.398 75.8239 162.036 76.2607 161.537 76.6101C161.043 76.9553 160.427 77.1278 159.69 77.1278C159.059 77.1278 158.501 76.9893 158.015 76.7124C157.534 76.4311 157.154 76.0156 156.877 75.4659C156.605 74.9162 156.468 74.2365 156.468 73.4268V67.1818H158.38V73.1967C158.38 73.8658 158.565 74.3984 158.936 74.7947C159.306 75.1911 159.788 75.3892 160.38 75.3892C160.738 75.3892 161.094 75.2997 161.448 75.1207C161.806 74.9418 162.102 74.6712 162.336 74.3089C162.575 73.9467 162.692 73.4865 162.688 72.9283ZM174.531 69.5788L172.798 69.8857C172.726 69.6641 172.611 69.4531 172.453 69.2528C172.3 69.0526 172.091 68.8885 171.827 68.7607C171.563 68.6328 171.232 68.5689 170.836 68.5689C170.295 68.5689 169.843 68.6903 169.481 68.9332C169.119 69.1719 168.938 69.4808 168.938 69.8601C168.938 70.1882 169.059 70.4524 169.302 70.6527C169.545 70.853 169.937 71.017 170.478 71.1449L172.038 71.5028C172.941 71.7116 173.615 72.0334 174.058 72.468C174.501 72.9027 174.722 73.4673 174.722 74.1619C174.722 74.75 174.552 75.2741 174.211 75.7344C173.874 76.1903 173.404 76.5483 172.798 76.8082C172.198 77.0682 171.501 77.1982 170.708 77.1982C169.609 77.1982 168.712 76.9638 168.017 76.495C167.323 76.022 166.896 75.3509 166.739 74.4815L168.586 74.2003C168.701 74.6818 168.938 75.0462 169.296 75.2933C169.654 75.5362 170.12 75.6577 170.695 75.6577C171.322 75.6577 171.823 75.5277 172.198 75.2678C172.573 75.0036 172.76 74.6818 172.76 74.3026C172.76 73.9957 172.645 73.7379 172.415 73.5291C172.189 73.3203 171.842 73.1626 171.373 73.0561L169.711 72.6918C168.795 72.483 168.117 72.1506 167.678 71.6946C167.244 71.2386 167.026 70.6612 167.026 69.9624C167.026 69.3828 167.188 68.8757 167.512 68.4411C167.836 68.0064 168.284 67.6676 168.855 67.4247C169.426 67.1776 170.08 67.054 170.817 67.054C171.878 67.054 172.713 67.2841 173.323 67.7443C173.932 68.2003 174.335 68.8118 174.531 69.5788ZM181.588 77V67.1818H183.422V68.7798H183.544C183.748 68.2386 184.083 67.8168 184.547 67.5142C185.012 67.2074 185.568 67.054 186.215 67.054C186.872 67.054 187.421 67.2074 187.865 67.5142C188.312 67.821 188.642 68.2429 188.855 68.7798H188.958C189.192 68.2557 189.565 67.8381 190.076 67.527C190.588 67.2116 191.197 67.054 191.904 67.054C192.795 67.054 193.521 67.3331 194.084 67.8913C194.651 68.4496 194.934 69.2912 194.934 70.4162V77H193.023V70.5952C193.023 69.9304 192.842 69.4489 192.48 69.1506C192.117 68.8523 191.685 68.7031 191.182 68.7031C190.56 68.7031 190.076 68.8949 189.731 69.2784C189.386 69.6577 189.213 70.1456 189.213 70.7422V77H187.308V70.4737C187.308 69.9411 187.142 69.5128 186.81 69.1889C186.477 68.8651 186.045 68.7031 185.512 68.7031C185.15 68.7031 184.816 68.799 184.509 68.9908C184.206 69.1783 183.961 69.4403 183.774 69.777C183.59 70.1136 183.499 70.5036 183.499 70.9467V77H181.588ZM200.353 77.2173C199.731 77.2173 199.168 77.1023 198.665 76.8722C198.163 76.6378 197.764 76.299 197.47 75.8558C197.18 75.4126 197.036 74.8693 197.036 74.2259C197.036 73.6719 197.142 73.2159 197.355 72.858C197.568 72.5 197.856 72.2166 198.218 72.0078C198.58 71.799 198.985 71.6413 199.433 71.5348C199.88 71.4283 200.336 71.3473 200.8 71.2919C201.388 71.2237 201.866 71.1683 202.232 71.1257C202.599 71.0788 202.865 71.0043 203.031 70.902C203.197 70.7997 203.281 70.6335 203.281 70.4034V70.3587C203.281 69.8004 203.123 69.3679 202.808 69.0611C202.496 68.7543 202.032 68.6009 201.414 68.6009C200.771 68.6009 200.263 68.7436 199.893 69.0291C199.526 69.3104 199.273 69.6236 199.132 69.9688L197.336 69.5597C197.549 68.9631 197.86 68.4815 198.269 68.1151C198.683 67.7443 199.158 67.4759 199.695 67.3097C200.232 67.1392 200.796 67.054 201.388 67.054C201.781 67.054 202.196 67.1009 202.635 67.1946C203.078 67.2841 203.491 67.4503 203.875 67.6932C204.263 67.9361 204.58 68.2834 204.827 68.7351C205.075 69.1825 205.198 69.7642 205.198 70.4801V77H203.332V75.6577H203.255C203.131 75.9048 202.946 76.1477 202.699 76.3864C202.452 76.625 202.134 76.8232 201.746 76.9808C201.359 77.1385 200.894 77.2173 200.353 77.2173ZM200.768 75.6832C201.297 75.6832 201.749 75.5788 202.124 75.37C202.503 75.1612 202.79 74.8885 202.987 74.5518C203.187 74.2109 203.287 73.8466 203.287 73.4588V72.1932C203.219 72.2614 203.087 72.3253 202.891 72.3849C202.699 72.4403 202.479 72.4893 202.232 72.532C201.985 72.5703 201.744 72.6065 201.51 72.6406C201.276 72.6705 201.08 72.696 200.922 72.7173C200.551 72.7642 200.212 72.843 199.906 72.9538C199.603 73.0646 199.36 73.2244 199.177 73.4332C198.998 73.6378 198.908 73.9105 198.908 74.2514C198.908 74.7244 199.083 75.0824 199.433 75.3253C199.782 75.5639 200.227 75.6832 200.768 75.6832ZM215.101 69.5788L213.369 69.8857C213.296 69.6641 213.181 69.4531 213.024 69.2528C212.87 69.0526 212.661 68.8885 212.397 68.7607C212.133 68.6328 211.803 68.5689 211.406 68.5689C210.865 68.5689 210.414 68.6903 210.051 68.9332C209.689 69.1719 209.508 69.4808 209.508 69.8601C209.508 70.1882 209.629 70.4524 209.872 70.6527C210.115 70.853 210.507 71.017 211.048 71.1449L212.608 71.5028C213.512 71.7116 214.185 72.0334 214.628 72.468C215.071 72.9027 215.293 73.4673 215.293 74.1619C215.293 74.75 215.122 75.2741 214.781 75.7344C214.445 76.1903 213.974 76.5483 213.369 76.8082C212.768 77.0682 212.071 77.1982 211.279 77.1982C210.179 77.1982 209.282 76.9638 208.588 76.495C207.893 76.022 207.467 75.3509 207.309 74.4815L209.156 74.2003C209.271 74.6818 209.508 75.0462 209.866 75.2933C210.224 75.5362 210.691 75.6577 211.266 75.6577C211.892 75.6577 212.393 75.5277 212.768 75.2678C213.143 75.0036 213.33 74.6818 213.33 74.3026C213.33 73.9957 213.215 73.7379 212.985 73.5291C212.759 73.3203 212.412 73.1626 211.943 73.0561L210.281 72.6918C209.365 72.483 208.688 72.1506 208.249 71.6946C207.814 71.2386 207.597 70.6612 207.597 69.9624C207.597 69.3828 207.759 68.8757 208.083 68.4411C208.406 68.0064 208.854 67.6676 209.425 67.4247C209.996 67.1776 210.65 67.054 211.387 67.054C212.448 67.054 213.284 67.2841 213.893 67.7443C214.502 68.2003 214.905 68.8118 215.101 69.5788ZM221.53 77.1982C220.58 77.1982 219.761 76.983 219.075 76.5526C218.393 76.1179 217.869 75.5192 217.503 74.7564C217.136 73.9936 216.953 73.12 216.953 72.1357C216.953 71.1385 217.141 70.2585 217.516 69.4957C217.891 68.7287 218.419 68.13 219.101 67.6996C219.783 67.2692 220.586 67.054 221.511 67.054C222.256 67.054 222.921 67.1925 223.505 67.4695C224.089 67.7422 224.56 68.1257 224.918 68.62C225.28 69.1143 225.495 69.6918 225.563 70.3523H223.703C223.601 69.892 223.366 69.4957 223 69.1634C222.638 68.831 222.152 68.6648 221.543 68.6648C221.01 68.6648 220.543 68.8054 220.143 69.0866C219.746 69.3636 219.438 69.7599 219.216 70.2756C218.994 70.7869 218.884 71.392 218.884 72.0909C218.884 72.8068 218.992 73.4247 219.21 73.9446C219.427 74.4645 219.734 74.8672 220.13 75.1527C220.531 75.4382 221.001 75.581 221.543 75.581C221.905 75.581 222.233 75.5149 222.527 75.3828C222.825 75.2464 223.075 75.0526 223.275 74.8011C223.479 74.5497 223.622 74.2472 223.703 73.8935H225.563C225.495 74.5284 225.288 75.0952 224.943 75.5938C224.598 76.0923 224.136 76.4844 223.556 76.7699C222.981 77.0554 222.305 77.1982 221.53 77.1982ZM231.743 77.1982C230.822 77.1982 230.019 76.9872 229.333 76.5653C228.647 76.1435 228.114 75.5533 227.735 74.7947C227.356 74.0362 227.166 73.1499 227.166 72.1357C227.166 71.1172 227.356 70.2266 227.735 69.4638C228.114 68.701 228.647 68.1087 229.333 67.6868C230.019 67.2649 230.822 67.054 231.743 67.054C232.663 67.054 233.466 67.2649 234.153 67.6868C234.839 68.1087 235.371 68.701 235.751 69.4638C236.13 70.2266 236.319 71.1172 236.319 72.1357C236.319 73.1499 236.13 74.0362 235.751 74.7947C235.371 75.5533 234.839 76.1435 234.153 76.5653C233.466 76.9872 232.663 77.1982 231.743 77.1982ZM231.749 75.5938C232.346 75.5938 232.84 75.4361 233.232 75.1207C233.624 74.8054 233.914 74.3857 234.101 73.8615C234.293 73.3374 234.389 72.7599 234.389 72.1293C234.389 71.5028 234.293 70.9276 234.101 70.4034C233.914 69.875 233.624 69.451 233.232 69.1314C232.84 68.8118 232.346 68.652 231.749 68.652C231.148 68.652 230.65 68.8118 230.253 69.1314C229.861 69.451 229.569 69.875 229.378 70.4034C229.19 70.9276 229.096 71.5028 229.096 72.1293C229.096 72.7599 229.19 73.3374 229.378 73.8615C229.569 74.3857 229.861 74.8054 230.253 75.1207C230.65 75.4361 231.148 75.5938 231.749 75.5938ZM243.036 67.1818V68.7159H237.673V67.1818H243.036ZM239.111 64.8295H241.022V74.1172C241.022 74.4879 241.078 74.767 241.189 74.9545C241.299 75.1378 241.442 75.2635 241.617 75.3317C241.796 75.3956 241.99 75.4276 242.199 75.4276C242.352 75.4276 242.486 75.4169 242.601 75.3956C242.716 75.3743 242.806 75.3572 242.87 75.3445L243.215 76.9233C243.104 76.9659 242.946 77.0085 242.742 77.0511C242.537 77.098 242.282 77.1236 241.975 77.1278C241.472 77.1364 241.003 77.0469 240.569 76.8594C240.134 76.6719 239.782 76.3821 239.514 75.9901C239.245 75.598 239.111 75.1058 239.111 74.5135V64.8295ZM248.007 77.2173C247.385 77.2173 246.823 77.1023 246.32 76.8722C245.817 76.6378 245.419 76.299 245.124 75.8558C244.835 75.4126 244.69 74.8693 244.69 74.2259C244.69 73.6719 244.796 73.2159 245.009 72.858C245.222 72.5 245.51 72.2166 245.872 72.0078C246.235 71.799 246.639 71.6413 247.087 71.5348C247.534 71.4283 247.99 71.3473 248.455 71.2919C249.043 71.2237 249.52 71.1683 249.887 71.1257C250.253 71.0788 250.519 71.0043 250.686 70.902C250.852 70.7997 250.935 70.6335 250.935 70.4034V70.3587C250.935 69.8004 250.777 69.3679 250.462 69.0611C250.151 68.7543 249.686 68.6009 249.068 68.6009C248.425 68.6009 247.918 68.7436 247.547 69.0291C247.181 69.3104 246.927 69.6236 246.786 69.9688L244.99 69.5597C245.203 68.9631 245.514 68.4815 245.923 68.1151C246.337 67.7443 246.812 67.4759 247.349 67.3097C247.886 67.1392 248.45 67.054 249.043 67.054C249.435 67.054 249.85 67.1009 250.289 67.1946C250.732 67.2841 251.146 67.4503 251.529 67.6932C251.917 67.9361 252.235 68.2834 252.482 68.7351C252.729 69.1825 252.852 69.7642 252.852 70.4801V77H250.986V75.6577H250.909C250.786 75.9048 250.6 76.1477 250.353 76.3864C250.106 76.625 249.789 76.8232 249.401 76.9808C249.013 77.1385 248.548 77.2173 248.007 77.2173ZM248.423 75.6832C248.951 75.6832 249.403 75.5788 249.778 75.37C250.157 75.1612 250.445 74.8885 250.641 74.5518C250.841 74.2109 250.941 73.8466 250.941 73.4588V72.1932C250.873 72.2614 250.741 72.3253 250.545 72.3849C250.353 72.4403 250.134 72.4893 249.887 72.532C249.639 72.5703 249.399 72.6065 249.164 72.6406C248.93 72.6705 248.734 72.696 248.576 72.7173C248.205 72.7642 247.867 72.843 247.56 72.9538C247.257 73.0646 247.014 73.2244 246.831 73.4332C246.652 73.6378 246.563 73.9105 246.563 74.2514C246.563 74.7244 246.737 75.0824 247.087 75.3253C247.436 75.5639 247.882 75.6832 248.423 75.6832ZM262.755 69.5788L261.023 69.8857C260.951 69.6641 260.836 69.4531 260.678 69.2528C260.525 69.0526 260.316 68.8885 260.051 68.7607C259.787 68.6328 259.457 68.5689 259.061 68.5689C258.52 68.5689 258.068 68.6903 257.706 68.9332C257.343 69.1719 257.162 69.4808 257.162 69.8601C257.162 70.1882 257.284 70.4524 257.527 70.6527C257.77 70.853 258.162 71.017 258.703 71.1449L260.262 71.5028C261.166 71.7116 261.839 72.0334 262.282 72.468C262.725 72.9027 262.947 73.4673 262.947 74.1619C262.947 74.75 262.777 75.2741 262.436 75.7344C262.099 76.1903 261.628 76.5483 261.023 76.8082C260.422 77.0682 259.725 77.1982 258.933 77.1982C257.833 77.1982 256.936 76.9638 256.242 76.495C255.547 76.022 255.121 75.3509 254.963 74.4815L256.811 74.2003C256.926 74.6818 257.162 75.0462 257.52 75.2933C257.878 75.5362 258.345 75.6577 258.92 75.6577C259.547 75.6577 260.047 75.5277 260.422 75.2678C260.797 75.0036 260.985 74.6818 260.985 74.3026C260.985 73.9957 260.87 73.7379 260.64 73.5291C260.414 73.3203 260.066 73.1626 259.598 73.0561L257.936 72.6918C257.02 72.483 256.342 72.1506 255.903 71.6946C255.468 71.2386 255.251 70.6612 255.251 69.9624C255.251 69.3828 255.413 68.8757 255.737 68.4411C256.061 68.0064 256.508 67.6676 257.079 67.4247C257.65 67.1776 258.304 67.054 259.042 67.054C260.103 67.054 260.938 67.2841 261.547 67.7443C262.157 68.2003 262.559 68.8118 262.755 69.5788ZM267.458 63.9091L267.292 73.2351H265.521L265.355 63.9091H267.458ZM266.41 77.1214C266.056 77.1214 265.754 76.9979 265.502 76.7507C265.251 76.4993 265.127 76.1967 265.132 75.843C265.127 75.4936 265.251 75.1953 265.502 74.9482C265.754 74.6967 266.056 74.571 266.41 74.571C266.755 74.571 267.053 74.6967 267.305 74.9482C267.556 75.1953 267.684 75.4936 267.688 75.843C267.684 76.0774 267.622 76.2926 267.503 76.4886C267.388 76.6804 267.235 76.8338 267.043 76.9489C266.851 77.0639 266.64 77.1214 266.41 77.1214Z" fill="#111C2D"/>
<path d="M148.942 50.0057V40.9545H151.23V50.0057H148.942ZM145.56 46.6243V44.3359H154.612V46.6243H145.56ZM162.015 52.179C161.061 52.179 160.21 52.0149 159.465 51.6868C158.723 51.3544 158.137 50.8984 157.707 50.3189C157.281 49.7351 157.061 49.0618 157.048 48.299H159.835C159.852 48.6186 159.957 48.8999 160.149 49.1428C160.345 49.3814 160.605 49.5668 160.928 49.6989C161.252 49.831 161.617 49.897 162.021 49.897C162.443 49.897 162.816 49.8224 163.14 49.6733C163.464 49.5241 163.718 49.3175 163.901 49.0533C164.084 48.7891 164.176 48.4844 164.176 48.1392C164.176 47.7898 164.078 47.4808 163.882 47.2124C163.69 46.9396 163.413 46.7266 163.051 46.5732C162.693 46.4197 162.267 46.343 161.772 46.343H160.551V44.3104H161.772C162.19 44.3104 162.558 44.2379 162.878 44.093C163.202 43.9482 163.453 43.7479 163.632 43.4922C163.811 43.2322 163.901 42.9297 163.901 42.5845C163.901 42.2564 163.822 41.9688 163.664 41.7216C163.511 41.4702 163.294 41.2741 163.012 41.1335C162.735 40.9929 162.411 40.9226 162.041 40.9226C161.666 40.9226 161.323 40.9908 161.012 41.1271C160.7 41.2592 160.451 41.4489 160.264 41.696C160.076 41.9432 159.976 42.233 159.963 42.5653H157.311C157.323 41.8111 157.539 41.1463 157.956 40.571C158.374 39.9957 158.936 39.5462 159.644 39.2223C160.355 38.8942 161.159 38.7301 162.053 38.7301C162.957 38.7301 163.747 38.8942 164.425 39.2223C165.102 39.5504 165.629 39.9936 166.004 40.5518C166.383 41.1058 166.57 41.728 166.566 42.4183C166.57 43.1513 166.343 43.7628 165.882 44.2528C165.426 44.7429 164.832 45.054 164.099 45.1861V45.2884C165.062 45.4119 165.795 45.7464 166.298 46.2919C166.805 46.8331 167.056 47.5107 167.052 48.3246C167.056 49.0703 166.841 49.733 166.406 50.3125C165.976 50.892 165.382 51.348 164.623 51.6804C163.865 52.0128 162.995 52.179 162.015 52.179ZM174.174 52.2876C173.075 52.2834 172.129 52.0128 171.336 51.4759C170.548 50.9389 169.941 50.1612 169.515 49.1428C169.093 48.1243 168.884 46.8991 168.888 45.4673C168.888 44.0398 169.099 42.8232 169.521 41.8175C169.947 40.8118 170.554 40.0469 171.343 39.5227C172.135 38.9943 173.079 38.7301 174.174 38.7301C175.27 38.7301 176.211 38.9943 177 39.5227C177.792 40.0511 178.402 40.8182 178.828 41.8239C179.254 42.8253 179.465 44.0398 179.461 45.4673C179.461 46.9034 179.248 48.1307 178.821 49.1491C178.4 50.1676 177.794 50.9453 177.006 51.4822C176.218 52.0192 175.274 52.2876 174.174 52.2876ZM174.174 49.9929C174.924 49.9929 175.523 49.6158 175.971 48.8615C176.418 48.1072 176.64 46.9759 176.635 45.4673C176.635 44.4744 176.533 43.6477 176.328 42.9872C176.128 42.3267 175.843 41.8303 175.472 41.4979C175.105 41.1655 174.673 40.9993 174.174 40.9993C173.429 40.9993 172.832 41.3722 172.385 42.1179C171.937 42.8636 171.711 43.9801 171.707 45.4673C171.707 46.473 171.807 47.3125 172.007 47.9858C172.212 48.6548 172.5 49.1577 172.87 49.4943C173.241 49.8267 173.676 49.9929 174.174 49.9929ZM186.567 52.2876C185.468 52.2834 184.521 52.0128 183.729 51.4759C182.941 50.9389 182.333 50.1612 181.907 49.1428C181.485 48.1243 181.276 46.8991 181.281 45.4673C181.281 44.0398 181.492 42.8232 181.914 41.8175C182.34 40.8118 182.947 40.0469 183.735 39.5227C184.528 38.9943 185.472 38.7301 186.567 38.7301C187.662 38.7301 188.604 38.9943 189.392 39.5227C190.185 40.0511 190.794 40.8182 191.22 41.8239C191.646 42.8253 191.857 44.0398 191.853 45.4673C191.853 46.9034 191.64 48.1307 191.214 49.1491C190.792 50.1676 190.187 50.9453 189.399 51.4822C188.61 52.0192 187.666 52.2876 186.567 52.2876ZM186.567 49.9929C187.317 49.9929 187.916 49.6158 188.363 48.8615C188.811 48.1072 189.032 46.9759 189.028 45.4673C189.028 44.4744 188.926 43.6477 188.721 42.9872C188.521 42.3267 188.235 41.8303 187.865 41.4979C187.498 41.1655 187.066 40.9993 186.567 40.9993C185.821 40.9993 185.225 41.3722 184.777 42.1179C184.33 42.8636 184.104 43.9801 184.1 45.4673C184.1 46.473 184.2 47.3125 184.4 47.9858C184.605 48.6548 184.892 49.1577 185.263 49.4943C185.634 49.8267 186.068 49.9929 186.567 49.9929ZM203.298 42.1818V44.2273H197.238V42.1818H203.298ZM198.626 52V41.4723C198.626 40.7607 198.764 40.1705 199.041 39.7017C199.322 39.233 199.706 38.8814 200.192 38.647C200.677 38.4126 201.229 38.2955 201.847 38.2955C202.265 38.2955 202.646 38.3274 202.991 38.3913C203.341 38.4553 203.601 38.5128 203.771 38.5639L203.285 40.6094C203.179 40.5753 203.047 40.5433 202.889 40.5135C202.736 40.4837 202.578 40.4688 202.416 40.4688C202.015 40.4688 201.736 40.5625 201.579 40.75C201.421 40.9332 201.342 41.1911 201.342 41.5234V52H198.626ZM207.41 52.1854C206.783 52.1854 206.225 52.0767 205.735 51.8594C205.245 51.6378 204.857 51.3118 204.572 50.8814C204.29 50.4467 204.15 49.9055 204.15 49.2578C204.15 48.7124 204.25 48.2543 204.45 47.8835C204.651 47.5128 204.923 47.2145 205.268 46.9886C205.614 46.7628 206.006 46.5923 206.445 46.4773C206.888 46.3622 207.352 46.2812 207.838 46.2344C208.409 46.1747 208.869 46.1193 209.219 46.0682C209.568 46.0128 209.822 45.9318 209.979 45.8253C210.137 45.7187 210.216 45.5611 210.216 45.3523V45.3139C210.216 44.9091 210.088 44.5959 209.832 44.3743C209.581 44.1527 209.223 44.0419 208.759 44.0419C208.268 44.0419 207.879 44.1506 207.589 44.3679C207.299 44.581 207.107 44.8494 207.013 45.1733L204.495 44.9688C204.623 44.3722 204.874 43.8565 205.249 43.4219C205.624 42.983 206.108 42.6463 206.7 42.4119C207.297 42.1733 207.987 42.054 208.771 42.054C209.317 42.054 209.839 42.1179 210.337 42.2457C210.84 42.3736 211.286 42.5717 211.673 42.8402C212.065 43.1087 212.374 43.4538 212.6 43.8757C212.826 44.2933 212.939 44.794 212.939 45.3778V52H210.357V50.6385H210.28C210.122 50.9453 209.911 51.2159 209.647 51.4503C209.383 51.6804 209.065 51.8615 208.695 51.9936C208.324 52.1214 207.896 52.1854 207.41 52.1854ZM208.19 50.3061C208.59 50.3061 208.944 50.2273 209.251 50.0696C209.558 49.9077 209.798 49.6903 209.973 49.4176C210.148 49.1449 210.235 48.8359 210.235 48.4908V47.4489C210.15 47.5043 210.033 47.5554 209.884 47.6023C209.739 47.6449 209.575 47.6854 209.391 47.7237C209.208 47.7578 209.025 47.7898 208.842 47.8196C208.658 47.8452 208.492 47.8686 208.343 47.8899C208.023 47.9368 207.744 48.0114 207.506 48.1136C207.267 48.2159 207.082 48.3544 206.95 48.5291C206.817 48.6996 206.751 48.9126 206.751 49.1683C206.751 49.5391 206.886 49.8224 207.154 50.0185C207.427 50.2102 207.772 50.3061 208.19 50.3061ZM215.051 52V42.1818H217.647V43.9141H217.762C217.966 43.3388 218.307 42.8849 218.784 42.5526C219.262 42.2202 219.833 42.054 220.498 42.054C221.171 42.054 221.744 42.2223 222.217 42.5589C222.69 42.8913 223.005 43.343 223.163 43.9141H223.265C223.466 43.3516 223.828 42.902 224.352 42.5653C224.88 42.2244 225.505 42.054 226.225 42.054C227.141 42.054 227.885 42.3459 228.456 42.9297C229.031 43.5092 229.319 44.3317 229.319 45.397V52H226.602V45.9339C226.602 45.3885 226.457 44.9794 226.167 44.7067C225.877 44.4339 225.515 44.2976 225.081 44.2976C224.586 44.2976 224.201 44.4553 223.924 44.7706C223.647 45.0817 223.508 45.4929 223.508 46.0043V52H220.868V45.8764C220.868 45.3949 220.73 45.0114 220.453 44.7259C220.18 44.4403 219.82 44.2976 219.373 44.2976C219.07 44.2976 218.797 44.3743 218.554 44.5277C218.316 44.6768 218.126 44.8878 217.985 45.1605C217.845 45.429 217.775 45.7443 217.775 46.1065V52H215.051ZM231.469 52V42.1818H234.192V52H231.469ZM232.837 40.9162C232.433 40.9162 232.085 40.782 231.795 40.5135C231.51 40.2408 231.367 39.9148 231.367 39.5355C231.367 39.1605 231.51 38.8388 231.795 38.5703C232.085 38.2976 232.433 38.1612 232.837 38.1612C233.242 38.1612 233.587 38.2976 233.873 38.5703C234.163 38.8388 234.308 39.1605 234.308 39.5355C234.308 39.9148 234.163 40.2408 233.873 40.5135C233.587 40.782 233.242 40.9162 232.837 40.9162ZM239.097 38.9091V52H236.374V38.9091H239.097ZM241.278 52V42.1818H244.001V52H241.278ZM242.646 40.9162C242.241 40.9162 241.894 40.782 241.604 40.5135C241.319 40.2408 241.176 39.9148 241.176 39.5355C241.176 39.1605 241.319 38.8388 241.604 38.5703C241.894 38.2976 242.241 38.1612 242.646 38.1612C243.051 38.1612 243.396 38.2976 243.681 38.5703C243.971 38.8388 244.116 39.1605 244.116 39.5355C244.116 39.9148 243.971 40.2408 243.681 40.5135C243.396 40.782 243.051 40.9162 242.646 40.9162ZM248.982 52.1854C248.356 52.1854 247.797 52.0767 247.307 51.8594C246.817 51.6378 246.43 51.3118 246.144 50.8814C245.863 50.4467 245.722 49.9055 245.722 49.2578C245.722 48.7124 245.822 48.2543 246.023 47.8835C246.223 47.5128 246.496 47.2145 246.841 46.9886C247.186 46.7628 247.578 46.5923 248.017 46.4773C248.46 46.3622 248.925 46.2812 249.41 46.2344C249.981 46.1747 250.442 46.1193 250.791 46.0682C251.14 46.0128 251.394 45.9318 251.552 45.8253C251.709 45.7187 251.788 45.5611 251.788 45.3523V45.3139C251.788 44.9091 251.66 44.5959 251.405 44.3743C251.153 44.1527 250.795 44.0419 250.331 44.0419C249.841 44.0419 249.451 44.1506 249.161 44.3679C248.871 44.581 248.68 44.8494 248.586 45.1733L246.067 44.9688C246.195 44.3722 246.447 43.8565 246.822 43.4219C247.197 42.983 247.68 42.6463 248.273 42.4119C248.869 42.1733 249.559 42.054 250.344 42.054C250.889 42.054 251.411 42.1179 251.91 42.2457C252.412 42.3736 252.858 42.5717 253.246 42.8402C253.638 43.1087 253.947 43.4538 254.172 43.8757C254.398 44.2933 254.511 44.794 254.511 45.3778V52H251.929V50.6385H251.852C251.694 50.9453 251.483 51.2159 251.219 51.4503C250.955 51.6804 250.638 51.8615 250.267 51.9936C249.896 52.1214 249.468 52.1854 248.982 52.1854ZM249.762 50.3061C250.162 50.3061 250.516 50.2273 250.823 50.0696C251.13 49.9077 251.371 49.6903 251.545 49.4176C251.72 49.1449 251.807 48.8359 251.807 48.4908V47.4489C251.722 47.5043 251.605 47.5554 251.456 47.6023C251.311 47.6449 251.147 47.6854 250.964 47.7237C250.78 47.7578 250.597 47.7898 250.414 47.8196C250.231 47.8452 250.064 47.8686 249.915 47.8899C249.596 47.9368 249.317 48.0114 249.078 48.1136C248.839 48.2159 248.654 48.3544 248.522 48.5291C248.39 48.6996 248.324 48.9126 248.324 49.1683C248.324 49.5391 248.458 49.8224 248.726 50.0185C248.999 50.2102 249.344 50.3061 249.762 50.3061ZM264.793 44.9815L262.3 45.1349C262.257 44.9219 262.166 44.7301 262.025 44.5597C261.884 44.3849 261.699 44.2464 261.469 44.1442C261.243 44.0376 260.972 43.9844 260.657 43.9844C260.235 43.9844 259.879 44.0739 259.59 44.2528C259.3 44.4276 259.155 44.6619 259.155 44.956C259.155 45.1903 259.249 45.3885 259.436 45.5504C259.624 45.7124 259.945 45.8423 260.401 45.9403L262.178 46.2983C263.133 46.4943 263.845 46.8097 264.313 47.2443C264.782 47.679 265.017 48.25 265.017 48.9574C265.017 49.6009 264.827 50.1655 264.448 50.6513C264.073 51.1371 263.557 51.5163 262.901 51.7891C262.249 52.0575 261.497 52.1918 260.644 52.1918C259.345 52.1918 258.309 51.9212 257.538 51.38C256.771 50.8345 256.321 50.093 256.189 49.1555L258.867 49.0149C258.948 49.4112 259.144 49.7138 259.455 49.9226C259.767 50.1271 260.165 50.2294 260.651 50.2294C261.128 50.2294 261.512 50.1378 261.801 49.9545C262.095 49.767 262.244 49.5263 262.249 49.2322C262.244 48.9851 262.14 48.7827 261.936 48.625C261.731 48.4631 261.416 48.3395 260.99 48.2543L259.289 47.9155C258.33 47.7237 257.617 47.3913 257.148 46.9183C256.683 46.4453 256.451 45.8423 256.451 45.1094C256.451 44.4787 256.622 43.9354 256.963 43.4794C257.308 43.0234 257.791 42.6719 258.414 42.4247C259.04 42.1776 259.773 42.054 260.612 42.054C261.852 42.054 262.828 42.3161 263.54 42.8402C264.256 43.3643 264.673 44.0781 264.793 44.9815Z" fill="#8965E5"/>
<path d="M41.9148 91.8182H43.1477V98.5597C43.1477 99.2557 42.9837 99.8771 42.6555 100.424C42.3307 100.968 41.8717 101.397 41.2784 101.712C40.6851 102.023 39.9891 102.179 39.1903 102.179C38.3916 102.179 37.6955 102.023 37.1023 101.712C36.509 101.397 36.0483 100.968 35.7202 100.424C35.3954 99.8771 35.233 99.2557 35.233 98.5597V91.8182H36.4659V98.4602C36.4659 98.9574 36.5753 99.3999 36.794 99.7876C37.0128 100.172 37.3243 100.475 37.7287 100.697C38.1364 100.916 38.6236 101.026 39.1903 101.026C39.7571 101.026 40.2443 100.916 40.652 100.697C41.0597 100.475 41.3712 100.172 41.5866 99.7876C41.8054 99.3999 41.9148 98.9574 41.9148 98.4602V91.8182ZM38.6534 90.7841L39.8665 88.4773H41.2386L39.6875 90.7841H38.6534ZM46.6241 91.8182V102H45.4508V91.8182H46.6241ZM52.0941 94.3636V95.358H48.1367V94.3636H52.0941ZM49.2901 92.5341H50.4634V99.8125C50.4634 100.144 50.5115 100.393 50.6076 100.558C50.707 100.721 50.833 100.83 50.9854 100.886C51.1412 100.939 51.3053 100.966 51.4776 100.966C51.6069 100.966 51.713 100.959 51.7958 100.946C51.8787 100.929 51.945 100.916 51.9947 100.906L52.2333 101.96C52.1538 101.99 52.0427 102.02 51.9002 102.05C51.7577 102.083 51.5771 102.099 51.3583 102.099C51.0269 102.099 50.7021 102.028 50.3839 101.886C50.069 101.743 49.8072 101.526 49.5984 101.234C49.3929 100.943 49.2901 100.575 49.2901 100.131V92.5341ZM53.859 102V94.3636H55.0323V102H53.859ZM54.4556 93.0909C54.2269 93.0909 54.0297 93.013 53.864 92.8572C53.7016 92.7015 53.6204 92.5142 53.6204 92.2955C53.6204 92.0767 53.7016 91.8894 53.864 91.7337C54.0297 91.5779 54.2269 91.5 54.4556 91.5C54.6843 91.5 54.8799 91.5779 55.0423 91.7337C55.208 91.8894 55.2908 92.0767 55.2908 92.2955C55.2908 92.5142 55.208 92.7015 55.0423 92.8572C54.8799 93.013 54.6843 93.0909 54.4556 93.0909ZM57.1813 102V94.3636H58.3148V95.5568H58.4142C58.5733 95.1491 58.8302 94.8326 59.1848 94.6072C59.5395 94.3786 59.9654 94.2642 60.4625 94.2642C60.9663 94.2642 61.3856 94.3786 61.7203 94.6072C62.0584 94.8326 62.3219 95.1491 62.5108 95.5568H62.5904C62.7859 95.1624 63.0792 94.8492 63.4703 94.6172C63.8614 94.3819 64.3304 94.2642 64.8773 94.2642C65.5601 94.2642 66.1185 94.478 66.5527 94.9055C66.9869 95.3298 67.204 95.991 67.204 96.8892V102H66.0307V96.8892C66.0307 96.3258 65.8766 95.9231 65.5684 95.6811C65.2601 95.4392 64.8972 95.3182 64.4796 95.3182C63.9426 95.3182 63.5267 95.4806 63.2317 95.8054C62.9367 96.1269 62.7892 96.5346 62.7892 97.0284V102H61.5961V96.7699C61.5961 96.3357 61.4552 95.986 61.1735 95.7209C60.8917 95.4524 60.5288 95.3182 60.0847 95.3182C59.7798 95.3182 59.4947 95.3994 59.2296 95.5618C58.9677 95.7242 58.7556 95.9496 58.5932 96.2379C58.4341 96.523 58.3546 96.8527 58.3546 97.2273V102H57.1813ZM72.4515 102.159C71.7621 102.159 71.1573 101.995 70.6369 101.667C70.1199 101.339 69.7155 100.88 69.4238 100.29C69.1355 99.6998 68.9913 99.0104 68.9913 98.2216C68.9913 97.4261 69.1355 96.7318 69.4238 96.1385C69.7155 95.5452 70.1199 95.0845 70.6369 94.7564C71.1573 94.4283 71.7621 94.2642 72.4515 94.2642C73.1409 94.2642 73.7441 94.4283 74.2612 94.7564C74.7815 95.0845 75.1859 95.5452 75.4743 96.1385C75.7659 96.7318 75.9118 97.4261 75.9118 98.2216C75.9118 99.0104 75.7659 99.6998 75.4743 100.29C75.1859 100.88 74.7815 101.339 74.2612 101.667C73.7441 101.995 73.1409 102.159 72.4515 102.159ZM72.4515 101.105C72.9752 101.105 73.4061 100.971 73.7441 100.702C74.0822 100.434 74.3324 100.081 74.4949 99.6435C74.6573 99.206 74.7385 98.732 74.7385 98.2216C74.7385 97.7112 74.6573 97.2356 74.4949 96.7947C74.3324 96.3539 74.0822 95.9976 73.7441 95.7259C73.4061 95.4541 72.9752 95.3182 72.4515 95.3182C71.9279 95.3182 71.497 95.4541 71.1589 95.7259C70.8208 95.9976 70.5706 96.3539 70.4082 96.7947C70.2458 97.2356 70.1646 97.7112 70.1646 98.2216C70.1646 98.732 70.2458 99.206 70.4082 99.6435C70.5706 100.081 70.8208 100.434 71.1589 100.702C71.497 100.971 71.9279 101.105 72.4515 101.105ZM83.1119 96.0739L82.0579 96.3722C81.9916 96.1965 81.8938 96.0258 81.7646 95.8601C81.6386 95.6911 81.4663 95.5518 81.2475 95.4425C81.0288 95.3331 80.7487 95.2784 80.4073 95.2784C79.94 95.2784 79.5505 95.3861 79.239 95.6016C78.9308 95.8137 78.7766 96.0838 78.7766 96.4119C78.7766 96.7036 78.8827 96.9339 79.0948 97.103C79.3069 97.272 79.6384 97.4129 80.0891 97.5256L81.2227 97.804C81.9054 97.9697 82.4142 98.2232 82.7489 98.5646C83.0837 98.9027 83.2511 99.3385 83.2511 99.8722C83.2511 100.31 83.1251 100.701 82.8732 101.045C82.6246 101.39 82.2766 101.662 81.8292 101.861C81.3817 102.06 80.8614 102.159 80.2681 102.159C79.4892 102.159 78.8446 101.99 78.3342 101.652C77.8237 101.314 77.5006 100.82 77.3647 100.17L78.4783 99.892C78.5844 100.303 78.7849 100.611 79.0799 100.817C79.3782 101.022 79.7676 101.125 80.2482 101.125C80.7951 101.125 81.2293 101.009 81.5508 100.777C81.8756 100.542 82.038 100.26 82.038 99.9318C82.038 99.6667 81.9452 99.4446 81.7596 99.2656C81.574 99.0833 81.2889 98.9474 80.9045 98.858L79.6317 98.5597C78.9324 98.3939 78.4187 98.1371 78.0906 97.7891C77.7657 97.4377 77.6033 96.9986 77.6033 96.4716C77.6033 96.0407 77.7243 95.6596 77.9663 95.3281C78.2115 94.9967 78.5446 94.7365 78.9656 94.5476C79.3898 94.3587 79.8704 94.2642 80.4073 94.2642C81.163 94.2642 81.7563 94.4299 82.1871 94.7614C82.6213 95.0928 82.9296 95.5303 83.1119 96.0739ZM92.3752 102.139C91.7189 102.139 91.1339 102.027 90.6202 101.801C90.1098 101.576 89.7038 101.263 89.4022 100.862C89.1039 100.457 88.9415 99.9882 88.915 99.4545H90.1678C90.1943 99.7827 90.307 100.066 90.5059 100.305C90.7047 100.54 90.9649 100.722 91.2864 100.852C91.6079 100.981 91.9642 101.045 92.3553 101.045C92.7928 101.045 93.1806 100.969 93.5186 100.817C93.8567 100.664 94.1219 100.452 94.3141 100.18C94.5063 99.9086 94.6025 99.5938 94.6025 99.2358C94.6025 98.8613 94.5096 98.5315 94.324 98.2464C94.1384 97.9581 93.8667 97.7327 93.5087 97.5703C93.1507 97.4079 92.7132 97.3267 92.1962 97.3267H91.3809V96.233H92.1962C92.6006 96.233 92.9552 96.16 93.2601 96.0142C93.5684 95.8684 93.8087 95.6629 93.981 95.3977C94.1567 95.1326 94.2445 94.821 94.2445 94.4631C94.2445 94.1184 94.1683 93.8184 94.0158 93.5632C93.8633 93.308 93.6479 93.1091 93.3695 92.9666C93.0944 92.8241 92.7696 92.7528 92.3951 92.7528C92.0437 92.7528 91.7123 92.8175 91.4007 92.9467C91.0925 93.0727 90.8406 93.2566 90.6451 93.4986C90.4495 93.7372 90.3435 94.0256 90.3269 94.3636H89.1337C89.1536 93.83 89.3143 93.3627 89.6159 92.9616C89.9176 92.5573 90.312 92.2424 90.7992 92.017C91.2897 91.7917 91.8283 91.679 92.415 91.679C93.0447 91.679 93.5849 91.8066 94.0357 92.0618C94.4864 92.3137 94.8328 92.6468 95.0748 93.0611C95.3167 93.4754 95.4377 93.9228 95.4377 94.4034C95.4377 94.9768 95.2869 95.4657 94.9853 95.87C94.687 96.2744 94.281 96.5545 93.7672 96.7102V96.7898C94.4102 96.8958 94.9123 97.1693 95.2736 97.6101C95.6349 98.0476 95.8155 98.5895 95.8155 99.2358C95.8155 99.7893 95.6647 100.286 95.3631 100.727C95.0648 101.165 94.6571 101.509 94.1401 101.761C93.623 102.013 93.0347 102.139 92.3752 102.139ZM104.053 102.179C103.57 102.179 103.13 102.088 102.736 101.906C102.342 101.72 102.028 101.453 101.796 101.105C101.564 100.754 101.448 100.33 101.448 99.8324C101.448 99.3949 101.535 99.0402 101.707 98.7685C101.879 98.4934 102.11 98.2779 102.398 98.1222C102.686 97.9664 103.004 97.8504 103.352 97.7741C103.704 97.6946 104.057 97.6316 104.411 97.5852C104.875 97.5256 105.252 97.4808 105.54 97.451C105.832 97.4179 106.044 97.3632 106.176 97.2869C106.312 97.2107 106.38 97.0781 106.38 96.8892V96.8494C106.38 96.3589 106.246 95.9777 105.977 95.706C105.712 95.4342 105.31 95.2983 104.769 95.2983C104.209 95.2983 103.77 95.4209 103.452 95.6662C103.134 95.9115 102.91 96.1733 102.781 96.4517L101.667 96.054C101.866 95.59 102.131 95.2287 102.463 94.9702C102.797 94.7083 103.162 94.526 103.556 94.4233C103.954 94.3172 104.345 94.2642 104.73 94.2642C104.975 94.2642 105.257 94.294 105.575 94.3537C105.896 94.41 106.206 94.5277 106.504 94.7067C106.806 94.8857 107.056 95.1558 107.255 95.517C107.454 95.8783 107.553 96.3622 107.553 96.9688V102H106.38V100.966H106.32C106.241 101.132 106.108 101.309 105.923 101.498C105.737 101.687 105.49 101.848 105.182 101.98C104.874 102.113 104.498 102.179 104.053 102.179ZM104.232 101.125C104.696 101.125 105.088 101.034 105.406 100.852C105.727 100.669 105.969 100.434 106.132 100.146C106.297 99.8572 106.38 99.554 106.38 99.2358V98.1619C106.33 98.2216 106.221 98.2763 106.052 98.326C105.886 98.3724 105.694 98.4138 105.475 98.4503C105.26 98.4834 105.049 98.5133 104.844 98.5398C104.642 98.563 104.478 98.5829 104.352 98.5994C104.047 98.6392 103.762 98.7038 103.497 98.7933C103.235 98.8795 103.023 99.0104 102.86 99.1861C102.701 99.3584 102.622 99.5937 102.622 99.892C102.622 100.3 102.772 100.608 103.074 100.817C103.379 101.022 103.765 101.125 104.232 101.125ZM110.868 97.4062V102H109.695V94.3636H110.828V95.5568H110.928C111.107 95.169 111.379 94.8575 111.743 94.6222C112.108 94.3835 112.578 94.2642 113.155 94.2642C113.672 94.2642 114.125 94.3703 114.512 94.5824C114.9 94.7912 115.202 95.1094 115.417 95.5369C115.633 95.9612 115.74 96.4981 115.74 97.1477V102H114.567V97.2273C114.567 96.6274 114.411 96.16 114.1 95.8253C113.788 95.4872 113.361 95.3182 112.817 95.3182C112.443 95.3182 112.108 95.3994 111.813 95.5618C111.521 95.7242 111.291 95.9612 111.122 96.2727C110.953 96.5843 110.868 96.9621 110.868 97.4062ZM111.186 93.4489L110.272 93.4091C110.272 92.902 110.416 92.4877 110.704 92.1662C110.996 91.8414 111.355 91.679 111.783 91.679C111.972 91.679 112.139 91.7121 112.285 91.7784C112.431 91.8414 112.57 91.9143 112.703 91.9972C112.835 92.08 112.971 92.1546 113.11 92.2209C113.253 92.2839 113.414 92.3153 113.593 92.3153C113.782 92.3153 113.941 92.2424 114.07 92.0966C114.203 91.9474 114.269 91.7685 114.269 91.5597L115.164 91.6392C115.164 92.1562 115.018 92.5672 114.726 92.8722C114.438 93.1771 114.08 93.3295 113.652 93.3295C113.424 93.3295 113.235 93.2981 113.086 93.2351C112.936 93.1688 112.804 93.0942 112.688 93.0114C112.572 92.9285 112.449 92.8556 112.32 92.7926C112.191 92.7263 112.032 92.6932 111.843 92.6932C111.654 92.6932 111.496 92.7678 111.37 92.9169C111.248 93.0627 111.186 93.2401 111.186 93.4489ZM120.987 102.159C120.297 102.159 119.692 101.995 119.172 101.667C118.655 101.339 118.251 100.88 117.959 100.29C117.671 99.6998 117.526 99.0104 117.526 98.2216C117.526 97.4261 117.671 96.7318 117.959 96.1385C118.251 95.5452 118.655 95.0845 119.172 94.7564C119.692 94.4283 120.297 94.2642 120.987 94.2642C121.676 94.2642 122.279 94.4283 122.796 94.7564C123.317 95.0845 123.721 95.5452 124.009 96.1385C124.301 96.7318 124.447 97.4261 124.447 98.2216C124.447 99.0104 124.301 99.6998 124.009 100.29C123.721 100.88 123.317 101.339 122.796 101.667C122.279 101.995 121.676 102.159 120.987 102.159ZM120.987 101.105C121.51 101.105 121.941 100.971 122.279 100.702C122.617 100.434 122.868 100.081 123.03 99.6435C123.192 99.206 123.274 98.732 123.274 98.2216C123.274 97.7112 123.192 97.2356 123.03 96.7947C122.868 96.3539 122.617 95.9976 122.279 95.7259C121.941 95.4541 121.51 95.3182 120.987 95.3182C120.463 95.3182 120.032 95.4541 119.694 95.7259C119.356 95.9976 119.106 96.3539 118.943 96.7947C118.781 97.2356 118.7 97.7112 118.7 98.2216C118.7 98.732 118.781 99.206 118.943 99.6435C119.106 100.081 119.356 100.434 119.694 100.702C120.032 100.971 120.463 101.105 120.987 101.105ZM131.647 96.0739L130.593 96.3722C130.527 96.1965 130.429 96.0258 130.3 95.8601C130.174 95.6911 130.001 95.5518 129.783 95.4425C129.564 95.3331 129.284 95.2784 128.942 95.2784C128.475 95.2784 128.086 95.3861 127.774 95.6016C127.466 95.8137 127.312 96.0838 127.312 96.4119C127.312 96.7036 127.418 96.9339 127.63 97.103C127.842 97.272 128.174 97.4129 128.624 97.5256L129.758 97.804C130.441 97.9697 130.949 98.2232 131.284 98.5646C131.619 98.9027 131.786 99.3385 131.786 99.8722C131.786 100.31 131.66 100.701 131.408 101.045C131.16 101.39 130.812 101.662 130.364 101.861C129.917 102.06 129.397 102.159 128.803 102.159C128.024 102.159 127.38 101.99 126.869 101.652C126.359 101.314 126.036 100.82 125.9 100.17L127.013 99.892C127.12 100.303 127.32 100.611 127.615 100.817C127.913 101.022 128.303 101.125 128.783 101.125C129.33 101.125 129.764 101.009 130.086 100.777C130.411 100.542 130.573 100.26 130.573 99.9318C130.573 99.6667 130.48 99.4446 130.295 99.2656C130.109 99.0833 129.824 98.9474 129.44 98.858L128.167 98.5597C127.468 98.3939 126.954 98.1371 126.626 97.7891C126.301 97.4377 126.138 96.9986 126.138 96.4716C126.138 96.0407 126.259 95.6596 126.501 95.3281C126.747 94.9967 127.08 94.7365 127.501 94.5476C127.925 94.3587 128.406 94.2642 128.942 94.2642C129.698 94.2642 130.291 94.4299 130.722 94.7614C131.156 95.0928 131.465 95.5303 131.647 96.0739Z" fill="#111C2D" fill-opacity="0.6"/>
<path d="M44 149C44 146.791 45.7909 145 48 145C50.2091 145 52 146.791 52 149V182C52 184.209 50.2091 186 48 186C45.7909 186 44 184.209 44 182V149Z" fill="#00A1FF"/>
<path d="M34.9034 215V214.233L37.7841 211.08C38.1222 210.71 38.4006 210.389 38.6193 210.116C38.8381 209.841 39 209.582 39.1051 209.341C39.2131 209.097 39.267 208.841 39.267 208.574C39.267 208.267 39.1932 208.001 39.0455 207.777C38.9006 207.553 38.7017 207.379 38.4489 207.257C38.196 207.135 37.9119 207.074 37.5966 207.074C37.2614 207.074 36.9688 207.143 36.7188 207.283C36.4716 207.419 36.2798 207.611 36.1435 207.858C36.0099 208.105 35.9432 208.395 35.9432 208.727H34.9375C34.9375 208.216 35.0554 207.767 35.2912 207.381C35.527 206.994 35.848 206.693 36.2543 206.477C36.6634 206.261 37.1222 206.153 37.6307 206.153C38.142 206.153 38.5952 206.261 38.9901 206.477C39.3849 206.693 39.6946 206.984 39.919 207.351C40.1435 207.717 40.2557 208.125 40.2557 208.574C40.2557 208.895 40.1974 209.209 40.081 209.516C39.9673 209.82 39.7685 210.159 39.4844 210.534C39.2031 210.906 38.8125 211.361 38.3125 211.898L36.3523 213.994V214.062H40.4091V215H34.9034ZM45.0156 215.119C44.3736 215.119 43.8267 214.945 43.375 214.595C42.9233 214.243 42.5781 213.733 42.3395 213.065C42.1009 212.395 41.9815 211.585 41.9815 210.636C41.9815 209.693 42.1009 208.888 42.3395 208.22C42.581 207.55 42.9276 207.038 43.3793 206.686C43.8338 206.331 44.3793 206.153 45.0156 206.153C45.652 206.153 46.196 206.331 46.6477 206.686C47.1023 207.038 47.4489 207.55 47.6875 208.22C47.929 208.888 48.0497 209.693 48.0497 210.636C48.0497 211.585 47.9304 212.395 47.6918 213.065C47.4531 213.733 47.108 214.243 46.6562 214.595C46.2045 214.945 45.6577 215.119 45.0156 215.119ZM45.0156 214.182C45.652 214.182 46.1463 213.875 46.4986 213.261C46.8509 212.648 47.027 211.773 47.027 210.636C47.027 209.881 46.946 209.237 46.7841 208.706C46.625 208.175 46.3949 207.77 46.0938 207.491C45.7955 207.213 45.4361 207.074 45.0156 207.074C44.3849 207.074 43.892 207.385 43.5369 208.007C43.1818 208.626 43.0043 209.503 43.0043 210.636C43.0043 211.392 43.0838 212.034 43.2429 212.562C43.402 213.091 43.6307 213.493 43.929 213.768C44.2301 214.044 44.5923 214.182 45.0156 214.182ZM49.669 215V214.233L52.5497 211.08C52.8878 210.71 53.1662 210.389 53.3849 210.116C53.6037 209.841 53.7656 209.582 53.8707 209.341C53.9787 209.097 54.0327 208.841 54.0327 208.574C54.0327 208.267 53.9588 208.001 53.8111 207.777C53.6662 207.553 53.4673 207.379 53.2145 207.257C52.9616 207.135 52.6776 207.074 52.3622 207.074C52.027 207.074 51.7344 207.143 51.4844 207.283C51.2372 207.419 51.0455 207.611 50.9091 207.858C50.7756 208.105 50.7088 208.395 50.7088 208.727H49.7031C49.7031 208.216 49.821 207.767 50.0568 207.381C50.2926 206.994 50.6136 206.693 51.0199 206.477C51.429 206.261 51.8878 206.153 52.3963 206.153C52.9077 206.153 53.3608 206.261 53.7557 206.477C54.1506 206.693 54.4602 206.984 54.6847 207.351C54.9091 207.717 55.0213 208.125 55.0213 208.574C55.0213 208.895 54.9631 209.209 54.8466 209.516C54.733 209.82 54.5341 210.159 54.25 210.534C53.9688 210.906 53.5781 211.361 53.0781 211.898L51.1179 213.994V214.062H55.1747V215H49.669ZM60.0028 206.273V215H58.946V207.381H58.8949L56.7642 208.795V207.722L58.946 206.273H60.0028Z" fill="#111C2D" fill-opacity="0.4"/>
<path d="M122.667 158C122.667 155.791 124.457 154 126.667 154C128.876 154 130.667 155.791 130.667 158V182C130.667 184.209 128.876 186 126.667 186C124.457 186 122.667 184.209 122.667 182V158Z" fill="#00A1FF"/>
<path d="M112.57 215V214.233L115.451 211.08C115.789 210.71 116.067 210.389 116.286 210.116C116.505 209.841 116.667 209.582 116.772 209.341C116.88 209.097 116.934 208.841 116.934 208.574C116.934 208.267 116.86 208.001 116.712 207.777C116.567 207.553 116.368 207.379 116.115 207.257C115.863 207.135 115.579 207.074 115.263 207.074C114.928 207.074 114.635 207.143 114.385 207.283C114.138 207.419 113.946 207.611 113.81 207.858C113.677 208.105 113.61 208.395 113.61 208.727H112.604C112.604 208.216 112.722 207.767 112.958 207.381C113.194 206.994 113.515 206.693 113.921 206.477C114.33 206.261 114.789 206.153 115.297 206.153C115.809 206.153 116.262 206.261 116.657 206.477C117.052 206.693 117.361 206.984 117.586 207.351C117.81 207.717 117.922 208.125 117.922 208.574C117.922 208.895 117.864 209.209 117.748 209.516C117.634 209.82 117.435 210.159 117.151 210.534C116.87 210.906 116.479 211.361 115.979 211.898L114.019 213.994V214.062H118.076V215H112.57ZM122.682 215.119C122.04 215.119 121.493 214.945 121.042 214.595C120.59 214.243 120.245 213.733 120.006 213.065C119.767 212.395 119.648 211.585 119.648 210.636C119.648 209.693 119.767 208.888 120.006 208.22C120.248 207.55 120.594 207.038 121.046 206.686C121.5 206.331 122.046 206.153 122.682 206.153C123.319 206.153 123.863 206.331 124.314 206.686C124.769 207.038 125.115 207.55 125.354 208.22C125.596 208.888 125.716 209.693 125.716 210.636C125.716 211.585 125.597 212.395 125.358 213.065C125.12 213.733 124.775 214.243 124.323 214.595C123.871 214.945 123.324 215.119 122.682 215.119ZM122.682 214.182C123.319 214.182 123.813 213.875 124.165 213.261C124.517 212.648 124.694 211.773 124.694 210.636C124.694 209.881 124.613 209.237 124.451 208.706C124.292 208.175 124.062 207.77 123.76 207.491C123.462 207.213 123.103 207.074 122.682 207.074C122.052 207.074 121.559 207.385 121.204 208.007C120.848 208.626 120.671 209.503 120.671 210.636C120.671 211.392 120.75 212.034 120.91 212.562C121.069 213.091 121.297 213.493 121.596 213.768C121.897 214.044 122.259 214.182 122.682 214.182ZM127.336 215V214.233L130.216 211.08C130.554 210.71 130.833 210.389 131.052 210.116C131.27 209.841 131.432 209.582 131.537 209.341C131.645 209.097 131.699 208.841 131.699 208.574C131.699 208.267 131.625 208.001 131.478 207.777C131.333 207.553 131.134 207.379 130.881 207.257C130.628 207.135 130.344 207.074 130.029 207.074C129.694 207.074 129.401 207.143 129.151 207.283C128.904 207.419 128.712 207.611 128.576 207.858C128.442 208.105 128.375 208.395 128.375 208.727H127.37C127.37 208.216 127.488 207.767 127.723 207.381C127.959 206.994 128.28 206.693 128.687 206.477C129.096 206.261 129.554 206.153 130.063 206.153C130.574 206.153 131.027 206.261 131.422 206.477C131.817 206.693 132.127 206.984 132.351 207.351C132.576 207.717 132.688 208.125 132.688 208.574C132.688 208.895 132.63 209.209 132.513 209.516C132.4 209.82 132.201 210.159 131.917 210.534C131.635 210.906 131.245 211.361 130.745 211.898L128.785 213.994V214.062H132.841V215H127.336ZM134.601 215V214.233L137.482 211.08C137.82 210.71 138.098 210.389 138.317 210.116C138.536 209.841 138.698 209.582 138.803 209.341C138.911 209.097 138.965 208.841 138.965 208.574C138.965 208.267 138.891 208.001 138.743 207.777C138.598 207.553 138.4 207.379 138.147 207.257C137.894 207.135 137.61 207.074 137.294 207.074C136.959 207.074 136.667 207.143 136.417 207.283C136.169 207.419 135.978 207.611 135.841 207.858C135.708 208.105 135.641 208.395 135.641 208.727H134.635C134.635 208.216 134.753 207.767 134.989 207.381C135.225 206.994 135.546 206.693 135.952 206.477C136.361 206.261 136.82 206.153 137.329 206.153C137.84 206.153 138.293 206.261 138.688 206.477C139.083 206.693 139.392 206.984 139.617 207.351C139.841 207.717 139.954 208.125 139.954 208.574C139.954 208.895 139.895 209.209 139.779 209.516C139.665 209.82 139.466 210.159 139.182 210.534C138.901 210.906 138.51 211.361 138.01 211.898L136.05 213.994V214.062H140.107V215H134.601Z" fill="#111C2D" fill-opacity="0.4"/>
<path d="M202.333 158C202.333 155.791 204.124 154 206.333 154C208.543 154 210.333 155.791 210.333 158V182C210.333 184.209 208.543 186 206.333 186C204.124 186 202.333 184.209 202.333 182V158Z" fill="#00A1FF"/>
<path d="M192.237 215V214.233L195.117 211.08C195.456 210.71 195.734 210.389 195.953 210.116C196.171 209.841 196.333 209.582 196.438 209.341C196.546 209.097 196.6 208.841 196.6 208.574C196.6 208.267 196.527 208.001 196.379 207.777C196.234 207.553 196.035 207.379 195.782 207.257C195.529 207.135 195.245 207.074 194.93 207.074C194.595 207.074 194.302 207.143 194.052 207.283C193.805 207.419 193.613 207.611 193.477 207.858C193.343 208.105 193.277 208.395 193.277 208.727H192.271C192.271 208.216 192.389 207.767 192.625 207.381C192.86 206.994 193.181 206.693 193.588 206.477C193.997 206.261 194.456 206.153 194.964 206.153C195.475 206.153 195.929 206.261 196.323 206.477C196.718 206.693 197.028 206.984 197.252 207.351C197.477 207.717 197.589 208.125 197.589 208.574C197.589 208.895 197.531 209.209 197.414 209.516C197.301 209.82 197.102 210.159 196.818 210.534C196.536 210.906 196.146 211.361 195.646 211.898L193.686 213.994V214.062H197.742V215H192.237ZM202.349 215.119C201.707 215.119 201.16 214.945 200.708 214.595C200.257 214.243 199.911 213.733 199.673 213.065C199.434 212.395 199.315 211.585 199.315 210.636C199.315 209.693 199.434 208.888 199.673 208.22C199.914 207.55 200.261 207.038 200.713 206.686C201.167 206.331 201.713 206.153 202.349 206.153C202.985 206.153 203.529 206.331 203.981 206.686C204.436 207.038 204.782 207.55 205.021 208.22C205.262 208.888 205.383 209.693 205.383 210.636C205.383 211.585 205.264 212.395 205.025 213.065C204.786 213.733 204.441 214.243 203.99 214.595C203.538 214.945 202.991 215.119 202.349 215.119ZM202.349 214.182C202.985 214.182 203.48 213.875 203.832 213.261C204.184 212.648 204.36 211.773 204.36 210.636C204.36 209.881 204.279 209.237 204.117 208.706C203.958 208.175 203.728 207.77 203.427 207.491C203.129 207.213 202.769 207.074 202.349 207.074C201.718 207.074 201.225 207.385 200.87 208.007C200.515 208.626 200.338 209.503 200.338 210.636C200.338 211.392 200.417 212.034 200.576 212.562C200.735 213.091 200.964 213.493 201.262 213.768C201.563 214.044 201.926 214.182 202.349 214.182ZM207.002 215V214.233L209.883 211.08C210.221 210.71 210.5 210.389 210.718 210.116C210.937 209.841 211.099 209.582 211.204 209.341C211.312 209.097 211.366 208.841 211.366 208.574C211.366 208.267 211.292 208.001 211.144 207.777C211 207.553 210.801 207.379 210.548 207.257C210.295 207.135 210.011 207.074 209.696 207.074C209.36 207.074 209.068 207.143 208.818 207.283C208.571 207.419 208.379 207.611 208.242 207.858C208.109 208.105 208.042 208.395 208.042 208.727H207.036C207.036 208.216 207.154 207.767 207.39 207.381C207.626 206.994 207.947 206.693 208.353 206.477C208.762 206.261 209.221 206.153 209.73 206.153C210.241 206.153 210.694 206.261 211.089 206.477C211.484 206.693 211.794 206.984 212.018 207.351C212.242 207.717 212.355 208.125 212.355 208.574C212.355 208.895 212.296 209.209 212.18 209.516C212.066 209.82 211.867 210.159 211.583 210.534C211.302 210.906 210.911 211.361 210.411 211.898L208.451 213.994V214.062H212.508V215H207.002ZM217.217 215.119C216.654 215.119 216.153 215.023 215.713 214.83C215.275 214.636 214.927 214.368 214.669 214.024C214.413 213.678 214.274 213.276 214.251 212.818H215.325C215.348 213.099 215.444 213.342 215.615 213.547C215.785 213.749 216.008 213.905 216.284 214.016C216.559 214.126 216.865 214.182 217.2 214.182C217.575 214.182 217.907 214.116 218.197 213.986C218.487 213.855 218.714 213.673 218.879 213.44C219.044 213.207 219.126 212.938 219.126 212.631C219.126 212.31 219.046 212.027 218.887 211.783C218.728 211.536 218.495 211.342 218.188 211.203C217.882 211.064 217.507 210.994 217.063 210.994H216.365V210.057H217.063C217.41 210.057 217.714 209.994 217.975 209.869C218.24 209.744 218.446 209.568 218.593 209.341C218.744 209.114 218.819 208.847 218.819 208.54C218.819 208.244 218.754 207.987 218.623 207.768C218.492 207.55 218.308 207.379 218.069 207.257C217.833 207.135 217.555 207.074 217.234 207.074C216.933 207.074 216.649 207.129 216.382 207.24C216.117 207.348 215.902 207.506 215.734 207.713C215.566 207.918 215.475 208.165 215.461 208.455H214.438C214.456 207.997 214.593 207.597 214.852 207.253C215.11 206.906 215.448 206.636 215.866 206.443C216.286 206.25 216.748 206.153 217.251 206.153C217.791 206.153 218.254 206.263 218.64 206.482C219.027 206.697 219.323 206.983 219.531 207.338C219.738 207.693 219.842 208.077 219.842 208.489C219.842 208.98 219.713 209.399 219.454 209.746C219.198 210.092 218.85 210.332 218.41 210.466V210.534C218.961 210.625 219.392 210.859 219.701 211.237C220.011 211.612 220.166 212.077 220.166 212.631C220.166 213.105 220.036 213.531 219.778 213.909C219.522 214.284 219.173 214.58 218.73 214.795C218.286 215.011 217.782 215.119 217.217 215.119Z" fill="#111C2D" fill-opacity="0.4"/>
<path d="M282 141C282 138.791 283.791 137 286 137C288.209 137 290 138.791 290 141V182C290 184.209 288.209 186 286 186C283.791 186 282 184.209 282 182V141Z" fill="#00A1FF"/>
<path d="M271.903 215V214.233L274.784 211.08C275.122 210.71 275.401 210.389 275.619 210.116C275.838 209.841 276 209.582 276.105 209.341C276.213 209.097 276.267 208.841 276.267 208.574C276.267 208.267 276.193 208.001 276.045 207.777C275.901 207.553 275.702 207.379 275.449 207.257C275.196 207.135 274.912 207.074 274.597 207.074C274.261 207.074 273.969 207.143 273.719 207.283C273.472 207.419 273.28 207.611 273.143 207.858C273.01 208.105 272.943 208.395 272.943 208.727H271.938C271.938 208.216 272.055 207.767 272.291 207.381C272.527 206.994 272.848 206.693 273.254 206.477C273.663 206.261 274.122 206.153 274.631 206.153C275.142 206.153 275.595 206.261 275.99 206.477C276.385 206.693 276.695 206.984 276.919 207.351C277.143 207.717 277.256 208.125 277.256 208.574C277.256 208.895 277.197 209.209 277.081 209.516C276.967 209.82 276.768 210.159 276.484 210.534C276.203 210.906 275.812 211.361 275.312 211.898L273.352 213.994V214.062H277.409V215H271.903ZM282.016 215.119C281.374 215.119 280.827 214.945 280.375 214.595C279.923 214.243 279.578 213.733 279.339 213.065C279.101 212.395 278.982 211.585 278.982 210.636C278.982 209.693 279.101 208.888 279.339 208.22C279.581 207.55 279.928 207.038 280.379 206.686C280.834 206.331 281.379 206.153 282.016 206.153C282.652 206.153 283.196 206.331 283.648 206.686C284.102 207.038 284.449 207.55 284.688 208.22C284.929 208.888 285.05 209.693 285.05 210.636C285.05 211.585 284.93 212.395 284.692 213.065C284.453 213.733 284.108 214.243 283.656 214.595C283.205 214.945 282.658 215.119 282.016 215.119ZM282.016 214.182C282.652 214.182 283.146 213.875 283.499 213.261C283.851 212.648 284.027 211.773 284.027 210.636C284.027 209.881 283.946 209.237 283.784 208.706C283.625 208.175 283.395 207.77 283.094 207.491C282.795 207.213 282.436 207.074 282.016 207.074C281.385 207.074 280.892 207.385 280.537 208.007C280.182 208.626 280.004 209.503 280.004 210.636C280.004 211.392 280.084 212.034 280.243 212.562C280.402 213.091 280.631 213.493 280.929 213.768C281.23 214.044 281.592 214.182 282.016 214.182ZM286.669 215V214.233L289.55 211.08C289.888 210.71 290.166 210.389 290.385 210.116C290.604 209.841 290.766 209.582 290.871 209.341C290.979 209.097 291.033 208.841 291.033 208.574C291.033 208.267 290.959 208.001 290.811 207.777C290.666 207.553 290.467 207.379 290.214 207.257C289.962 207.135 289.678 207.074 289.362 207.074C289.027 207.074 288.734 207.143 288.484 207.283C288.237 207.419 288.045 207.611 287.909 207.858C287.776 208.105 287.709 208.395 287.709 208.727H286.703C286.703 208.216 286.821 207.767 287.057 207.381C287.293 206.994 287.614 206.693 288.02 206.477C288.429 206.261 288.888 206.153 289.396 206.153C289.908 206.153 290.361 206.261 290.756 206.477C291.151 206.693 291.46 206.984 291.685 207.351C291.909 207.717 292.021 208.125 292.021 208.574C292.021 208.895 291.963 209.209 291.847 209.516C291.733 209.82 291.534 210.159 291.25 210.534C290.969 210.906 290.578 211.361 290.078 211.898L288.118 213.994V214.062H292.175V215H286.669ZM293.543 213.21V212.341L297.378 206.273H298.009V207.619H297.582L294.685 212.205V212.273H299.849V213.21H293.543ZM297.651 215V212.946V212.541V206.273H298.656V215H297.651Z" fill="#111C2D" fill-opacity="0.4"/>
<rect x="34" y="254" width="18" height="10" rx="5" fill="#00A1FF"/>
<path d="M61.233 253.818H62.7045L66.1648 262.27H66.2841L69.7443 253.818H71.2159V264H70.0625V256.264H69.9631L66.7812 264H65.6676L62.4858 256.264H62.3864V264H61.233V253.818ZM75.7761 264.179C75.2922 264.179 74.853 264.088 74.4586 263.906C74.0642 263.72 73.751 263.453 73.519 263.105C73.287 262.754 73.171 262.33 73.171 261.832C73.171 261.395 73.2572 261.04 73.4295 260.768C73.6019 260.493 73.8322 260.278 74.1206 260.122C74.4089 259.966 74.7271 259.85 75.0751 259.774C75.4264 259.695 75.7794 259.632 76.1341 259.585C76.5981 259.526 76.9743 259.481 77.2626 259.451C77.5543 259.418 77.7664 259.363 77.899 259.287C78.0349 259.211 78.1028 259.078 78.1028 258.889V258.849C78.1028 258.359 77.9686 257.978 77.7001 257.706C77.435 257.434 77.0323 257.298 76.492 257.298C75.9319 257.298 75.4927 257.421 75.1745 257.666C74.8564 257.911 74.6326 258.173 74.5034 258.452L73.3897 258.054C73.5886 257.59 73.8538 257.229 74.1852 256.97C74.5199 256.708 74.8845 256.526 75.2789 256.423C75.6767 256.317 76.0678 256.264 76.4522 256.264C76.6975 256.264 76.9792 256.294 77.2974 256.354C77.6189 256.41 77.9288 256.528 78.2271 256.707C78.5287 256.886 78.7789 257.156 78.9778 257.517C79.1767 257.878 79.2761 258.362 79.2761 258.969V264H78.1028V262.966H78.0431C77.9636 263.132 77.831 263.309 77.6454 263.498C77.4598 263.687 77.2129 263.848 76.9047 263.98C76.5964 264.113 76.2202 264.179 75.7761 264.179ZM75.9551 263.125C76.4191 263.125 76.8102 263.034 77.1284 262.852C77.4499 262.669 77.6918 262.434 77.8542 262.146C78.0199 261.857 78.1028 261.554 78.1028 261.236V260.162C78.0531 260.222 77.9437 260.276 77.7747 260.326C77.609 260.372 77.4167 260.414 77.198 260.45C76.9825 260.483 76.7721 260.513 76.5666 260.54C76.3644 260.563 76.2003 260.583 76.0744 260.599C75.7695 260.639 75.4844 260.704 75.2193 260.793C74.9574 260.879 74.7453 261.01 74.5829 261.186C74.4238 261.358 74.3443 261.594 74.3443 261.892C74.3443 262.3 74.4951 262.608 74.7967 262.817C75.1016 263.022 75.4877 263.125 75.9551 263.125ZM86.8267 258.074L85.7727 258.372C85.7064 258.196 85.6087 258.026 85.4794 257.86C85.3535 257.691 85.1811 257.552 84.9624 257.442C84.7436 257.333 84.4635 257.278 84.1222 257.278C83.6548 257.278 83.2654 257.386 82.9538 257.602C82.6456 257.814 82.4915 258.084 82.4915 258.412C82.4915 258.704 82.5975 258.934 82.8097 259.103C83.0218 259.272 83.3532 259.413 83.804 259.526L84.9375 259.804C85.6203 259.97 86.129 260.223 86.4638 260.565C86.7985 260.903 86.9659 261.339 86.9659 261.872C86.9659 262.31 86.84 262.701 86.5881 263.045C86.3395 263.39 85.9915 263.662 85.544 263.861C85.0966 264.06 84.5762 264.159 83.983 264.159C83.2041 264.159 82.5594 263.99 82.049 263.652C81.5386 263.314 81.2154 262.82 81.0795 262.17L82.1932 261.892C82.2992 262.303 82.4998 262.611 82.7947 262.817C83.093 263.022 83.4825 263.125 83.9631 263.125C84.5099 263.125 84.9441 263.009 85.2656 262.777C85.5904 262.542 85.7528 262.26 85.7528 261.932C85.7528 261.667 85.66 261.445 85.4744 261.266C85.2888 261.083 85.0038 260.947 84.6193 260.858L83.3466 260.56C82.6473 260.394 82.1335 260.137 81.8054 259.789C81.4806 259.438 81.3182 258.999 81.3182 258.472C81.3182 258.041 81.4392 257.66 81.6811 257.328C81.9264 256.997 82.2595 256.737 82.6804 256.548C83.1046 256.359 83.5852 256.264 84.1222 256.264C84.8778 256.264 85.4711 256.43 85.902 256.761C86.3362 257.093 86.6444 257.53 86.8267 258.074ZM91.8343 264.159C91.1184 264.159 90.502 263.99 89.9849 263.652C89.4679 263.314 89.0701 262.848 88.7917 262.255C88.5133 261.662 88.3741 260.984 88.3741 260.222C88.3741 259.446 88.5166 258.762 88.8017 258.168C89.09 257.572 89.4911 257.106 90.0048 256.771C90.5218 256.433 91.1251 256.264 91.8145 256.264C92.3514 256.264 92.8353 256.364 93.2662 256.562C93.697 256.761 94.05 257.04 94.3251 257.398C94.6002 257.756 94.7709 258.173 94.8372 258.651H93.6639C93.5744 258.303 93.3755 257.994 93.0673 257.726C92.7624 257.454 92.3514 257.318 91.8343 257.318C91.377 257.318 90.9759 257.437 90.6312 257.676C90.2898 257.911 90.023 258.245 89.8308 258.675C89.6419 259.103 89.5474 259.605 89.5474 260.182C89.5474 260.772 89.6402 261.286 89.8258 261.723C90.0147 262.161 90.2799 262.5 90.6213 262.742C90.966 262.984 91.3703 263.105 91.8343 263.105C92.1393 263.105 92.416 263.052 92.6646 262.946C92.9132 262.84 93.1236 262.688 93.296 262.489C93.4683 262.29 93.591 262.051 93.6639 261.773H94.8372C94.7709 262.223 94.6068 262.629 94.345 262.991C94.0865 263.349 93.7434 263.634 93.3159 263.846C92.8916 264.055 92.3978 264.159 91.8343 264.159ZM99.6547 264.159C98.9653 264.159 98.3604 263.995 97.84 263.667C97.323 263.339 96.9186 262.88 96.627 262.29C96.3386 261.7 96.1944 261.01 96.1944 260.222C96.1944 259.426 96.3386 258.732 96.627 258.138C96.9186 257.545 97.323 257.085 97.84 256.756C98.3604 256.428 98.9653 256.264 99.6547 256.264C100.344 256.264 100.947 256.428 101.464 256.756C101.985 257.085 102.389 257.545 102.677 258.138C102.969 258.732 103.115 259.426 103.115 260.222C103.115 261.01 102.969 261.7 102.677 262.29C102.389 262.88 101.985 263.339 101.464 263.667C100.947 263.995 100.344 264.159 99.6547 264.159ZM99.6547 263.105C100.178 263.105 100.609 262.971 100.947 262.702C101.285 262.434 101.536 262.081 101.698 261.643C101.86 261.206 101.942 260.732 101.942 260.222C101.942 259.711 101.86 259.236 101.698 258.795C101.536 258.354 101.285 257.998 100.947 257.726C100.609 257.454 100.178 257.318 99.6547 257.318C99.131 257.318 98.7001 257.454 98.362 257.726C98.024 257.998 97.7737 258.354 97.6113 258.795C97.4489 259.236 97.3677 259.711 97.3677 260.222C97.3677 260.732 97.4489 261.206 97.6113 261.643C97.7737 262.081 98.024 262.434 98.362 262.702C98.7001 262.971 99.131 263.105 99.6547 263.105ZM108.227 256.364V257.358H104.27V256.364H108.227ZM105.423 254.534H106.596V261.812C106.596 262.144 106.644 262.393 106.74 262.558C106.84 262.721 106.966 262.83 107.118 262.886C107.274 262.939 107.438 262.966 107.61 262.966C107.74 262.966 107.846 262.959 107.929 262.946C108.011 262.929 108.078 262.916 108.127 262.906L108.366 263.96C108.287 263.99 108.176 264.02 108.033 264.05C107.891 264.083 107.71 264.099 107.491 264.099C107.16 264.099 106.835 264.028 106.517 263.886C106.202 263.743 105.94 263.526 105.731 263.234C105.526 262.943 105.423 262.575 105.423 262.131V254.534ZM112.239 264.179C111.755 264.179 111.316 264.088 110.922 263.906C110.527 263.72 110.214 263.453 109.982 263.105C109.75 262.754 109.634 262.33 109.634 261.832C109.634 261.395 109.72 261.04 109.892 260.768C110.065 260.493 110.295 260.278 110.583 260.122C110.872 259.966 111.19 259.85 111.538 259.774C111.889 259.695 112.242 259.632 112.597 259.585C113.061 259.526 113.437 259.481 113.725 259.451C114.017 259.418 114.229 259.363 114.362 259.287C114.498 259.211 114.566 259.078 114.566 258.889V258.849C114.566 258.359 114.431 257.978 114.163 257.706C113.898 257.434 113.495 257.298 112.955 257.298C112.395 257.298 111.956 257.421 111.637 257.666C111.319 257.911 111.096 258.173 110.966 258.452L109.853 258.054C110.051 257.59 110.317 257.229 110.648 256.97C110.983 256.708 111.347 256.526 111.742 256.423C112.14 256.317 112.531 256.264 112.915 256.264C113.16 256.264 113.442 256.294 113.76 256.354C114.082 256.41 114.392 256.528 114.69 256.707C114.992 256.886 115.242 257.156 115.441 257.517C115.64 257.878 115.739 258.362 115.739 258.969V264H114.566V262.966H114.506C114.426 263.132 114.294 263.309 114.108 263.498C113.923 263.687 113.676 263.848 113.368 263.98C113.059 264.113 112.683 264.179 112.239 264.179ZM112.418 263.125C112.882 263.125 113.273 263.034 113.591 262.852C113.913 262.669 114.155 262.434 114.317 262.146C114.483 261.857 114.566 261.554 114.566 261.236V260.162C114.516 260.222 114.407 260.276 114.238 260.326C114.072 260.372 113.88 260.414 113.661 260.45C113.445 260.483 113.235 260.513 113.029 260.54C112.827 260.563 112.663 260.583 112.537 260.599C112.232 260.639 111.947 260.704 111.682 260.793C111.42 260.879 111.208 261.01 111.046 261.186C110.887 261.358 110.807 261.594 110.807 261.892C110.807 262.3 110.958 262.608 111.26 262.817C111.565 263.022 111.951 263.125 112.418 263.125ZM123.29 258.074L122.236 258.372C122.169 258.196 122.072 258.026 121.942 257.86C121.816 257.691 121.644 257.552 121.425 257.442C121.206 257.333 120.926 257.278 120.585 257.278C120.118 257.278 119.728 257.386 119.417 257.602C119.108 257.814 118.954 258.084 118.954 258.412C118.954 258.704 119.06 258.934 119.273 259.103C119.485 259.272 119.816 259.413 120.267 259.526L121.4 259.804C122.083 259.97 122.592 260.223 122.927 260.565C123.261 260.903 123.429 261.339 123.429 261.872C123.429 262.31 123.303 262.701 123.051 263.045C122.802 263.39 122.454 263.662 122.007 263.861C121.559 264.06 121.039 264.159 120.446 264.159C119.667 264.159 119.022 263.99 118.512 263.652C118.001 263.314 117.678 262.82 117.542 262.17L118.656 261.892C118.762 262.303 118.963 262.611 119.258 262.817C119.556 263.022 119.945 263.125 120.426 263.125C120.973 263.125 121.407 263.009 121.729 262.777C122.053 262.542 122.216 262.26 122.216 261.932C122.216 261.667 122.123 261.445 121.937 261.266C121.752 261.083 121.467 260.947 121.082 260.858L119.809 260.56C119.11 260.394 118.596 260.137 118.268 259.789C117.943 259.438 117.781 258.999 117.781 258.472C117.781 258.041 117.902 257.66 118.144 257.328C118.389 256.997 118.722 256.737 119.143 256.548C119.568 256.359 120.048 256.264 120.585 256.264C121.341 256.264 121.934 256.43 122.365 256.761C122.799 257.093 123.107 257.53 123.29 258.074ZM129.132 264V256.364H130.266V257.517H130.346C130.485 257.139 130.737 256.833 131.101 256.597C131.466 256.362 131.877 256.244 132.334 256.244C132.42 256.244 132.528 256.246 132.657 256.249C132.787 256.253 132.884 256.258 132.951 256.264V257.457C132.911 257.447 132.82 257.433 132.677 257.413C132.538 257.389 132.391 257.378 132.235 257.378C131.864 257.378 131.532 257.456 131.24 257.612C130.952 257.764 130.723 257.976 130.554 258.248C130.389 258.516 130.306 258.823 130.306 259.168V264H129.132ZM137.311 264.159C136.575 264.159 135.94 263.997 135.407 263.672C134.876 263.344 134.467 262.886 134.179 262.3C133.894 261.71 133.751 261.024 133.751 260.241C133.751 259.459 133.894 258.77 134.179 258.173C134.467 257.573 134.868 257.106 135.382 256.771C135.899 256.433 136.502 256.264 137.191 256.264C137.589 256.264 137.982 256.33 138.37 256.463C138.757 256.596 139.11 256.811 139.429 257.109C139.747 257.404 140 257.795 140.189 258.283C140.378 258.77 140.473 259.37 140.473 260.082V260.58H134.586V259.565H139.279C139.279 259.134 139.193 258.75 139.021 258.412C138.852 258.074 138.61 257.807 138.295 257.612C137.984 257.416 137.616 257.318 137.191 257.318C136.724 257.318 136.32 257.434 135.978 257.666C135.64 257.895 135.38 258.193 135.198 258.561C135.016 258.929 134.924 259.323 134.924 259.744V260.42C134.924 260.997 135.024 261.486 135.223 261.887C135.425 262.285 135.705 262.588 136.063 262.797C136.421 263.002 136.837 263.105 137.311 263.105C137.619 263.105 137.897 263.062 138.146 262.976C138.398 262.886 138.615 262.754 138.797 262.578C138.98 262.399 139.12 262.177 139.22 261.912L140.353 262.23C140.234 262.615 140.033 262.953 139.752 263.244C139.47 263.533 139.122 263.758 138.708 263.92C138.293 264.08 137.828 264.159 137.311 264.159ZM147.667 258.074L146.613 258.372C146.546 258.196 146.449 258.026 146.319 257.86C146.193 257.691 146.021 257.552 145.802 257.442C145.583 257.333 145.303 257.278 144.962 257.278C144.495 257.278 144.105 257.386 143.794 257.602C143.485 257.814 143.331 258.084 143.331 258.412C143.331 258.704 143.437 258.934 143.65 259.103C143.862 259.272 144.193 259.413 144.644 259.526L145.777 259.804C146.46 259.97 146.969 260.223 147.304 260.565C147.638 260.903 147.806 261.339 147.806 261.872C147.806 262.31 147.68 262.701 147.428 263.045C147.179 263.39 146.831 263.662 146.384 263.861C145.936 264.06 145.416 264.159 144.823 264.159C144.044 264.159 143.399 263.99 142.889 263.652C142.378 263.314 142.055 262.82 141.919 262.17L143.033 261.892C143.139 262.303 143.34 262.611 143.635 262.817C143.933 263.022 144.322 263.125 144.803 263.125C145.35 263.125 145.784 263.009 146.105 262.777C146.43 262.542 146.593 262.26 146.593 261.932C146.593 261.667 146.5 261.445 146.314 261.266C146.129 261.083 145.844 260.947 145.459 260.858L144.186 260.56C143.487 260.394 142.973 260.137 142.645 259.789C142.32 259.438 142.158 258.999 142.158 258.472C142.158 258.041 142.279 257.66 142.521 257.328C142.766 256.997 143.099 256.737 143.52 256.548C143.944 256.359 144.425 256.264 144.962 256.264C145.718 256.264 146.311 256.43 146.742 256.761C147.176 257.093 147.484 257.53 147.667 258.074ZM152.674 264.159C151.958 264.159 151.342 263.99 150.825 263.652C150.308 263.314 149.91 262.848 149.632 262.255C149.353 261.662 149.214 260.984 149.214 260.222C149.214 259.446 149.356 258.762 149.642 258.168C149.93 257.572 150.331 257.106 150.845 256.771C151.362 256.433 151.965 256.264 152.654 256.264C153.191 256.264 153.675 256.364 154.106 256.562C154.537 256.761 154.89 257.04 155.165 257.398C155.44 257.756 155.611 258.173 155.677 258.651H154.504C154.414 258.303 154.215 257.994 153.907 257.726C153.602 257.454 153.191 257.318 152.674 257.318C152.217 257.318 151.816 257.437 151.471 257.676C151.13 257.911 150.863 258.245 150.671 258.675C150.482 259.103 150.387 259.605 150.387 260.182C150.387 260.772 150.48 261.286 150.666 261.723C150.855 262.161 151.12 262.5 151.461 262.742C151.806 262.984 152.21 263.105 152.674 263.105C152.979 263.105 153.256 263.052 153.504 262.946C153.753 262.84 153.963 262.688 154.136 262.489C154.308 262.29 154.431 262.051 154.504 261.773H155.677C155.611 262.223 155.447 262.629 155.185 262.991C154.926 263.349 154.583 263.634 154.156 263.846C153.731 264.055 153.238 264.159 152.674 264.159ZM159.639 264.179C159.155 264.179 158.716 264.088 158.322 263.906C157.927 263.72 157.614 263.453 157.382 263.105C157.15 262.754 157.034 262.33 157.034 261.832C157.034 261.395 157.12 261.04 157.293 260.768C157.465 260.493 157.695 260.278 157.984 260.122C158.272 259.966 158.59 259.85 158.938 259.774C159.29 259.695 159.643 259.632 159.997 259.585C160.461 259.526 160.838 259.481 161.126 259.451C161.418 259.418 161.63 259.363 161.762 259.287C161.898 259.211 161.966 259.078 161.966 258.889V258.849C161.966 258.359 161.832 257.978 161.563 257.706C161.298 257.434 160.896 257.298 160.355 257.298C159.795 257.298 159.356 257.421 159.038 257.666C158.72 257.911 158.496 258.173 158.367 258.452L157.253 258.054C157.452 257.59 157.717 257.229 158.048 256.97C158.383 256.708 158.748 256.526 159.142 256.423C159.54 256.317 159.931 256.264 160.316 256.264C160.561 256.264 160.843 256.294 161.161 256.354C161.482 256.41 161.792 256.528 162.09 256.707C162.392 256.886 162.642 257.156 162.841 257.517C163.04 257.878 163.139 258.362 163.139 258.969V264H161.966V262.966H161.906C161.827 263.132 161.694 263.309 161.509 263.498C161.323 263.687 161.076 263.848 160.768 263.98C160.46 264.113 160.084 264.179 159.639 264.179ZM159.818 263.125C160.282 263.125 160.673 263.034 160.992 262.852C161.313 262.669 161.555 262.434 161.718 262.146C161.883 261.857 161.966 261.554 161.966 261.236V260.162C161.916 260.222 161.807 260.276 161.638 260.326C161.472 260.372 161.28 260.414 161.061 260.45C160.846 260.483 160.635 260.513 160.43 260.54C160.228 260.563 160.064 260.583 159.938 260.599C159.633 260.639 159.348 260.704 159.083 260.793C158.821 260.879 158.609 261.01 158.446 261.186C158.287 261.358 158.208 261.594 158.208 261.892C158.208 262.3 158.358 262.608 158.66 262.817C158.965 263.022 159.351 263.125 159.818 263.125ZM168.602 256.364V257.358H164.645V256.364H168.602ZM165.798 254.534H166.971V261.812C166.971 262.144 167.019 262.393 167.115 262.558C167.215 262.721 167.341 262.83 167.493 262.886C167.649 262.939 167.813 262.966 167.985 262.966C168.115 262.966 168.221 262.959 168.304 262.946C168.386 262.929 168.453 262.916 168.502 262.906L168.741 263.96C168.662 263.99 168.551 264.02 168.408 264.05C168.266 264.083 168.085 264.099 167.866 264.099C167.535 264.099 167.21 264.028 166.892 263.886C166.577 263.743 166.315 263.526 166.106 263.234C165.901 262.943 165.798 262.575 165.798 262.131V254.534ZM172.614 264.179C172.13 264.179 171.691 264.088 171.297 263.906C170.902 263.72 170.589 263.453 170.357 263.105C170.125 262.754 170.009 262.33 170.009 261.832C170.009 261.395 170.095 261.04 170.267 260.768C170.44 260.493 170.67 260.278 170.958 260.122C171.247 259.966 171.565 259.85 171.913 259.774C172.264 259.695 172.617 259.632 172.972 259.585C173.436 259.526 173.812 259.481 174.1 259.451C174.392 259.418 174.604 259.363 174.737 259.287C174.873 259.211 174.941 259.078 174.941 258.889V258.849C174.941 258.359 174.806 257.978 174.538 257.706C174.273 257.434 173.87 257.298 173.33 257.298C172.77 257.298 172.331 257.421 172.012 257.666C171.694 257.911 171.471 258.173 171.341 258.452L170.228 258.054C170.426 257.59 170.692 257.229 171.023 256.97C171.358 256.708 171.722 256.526 172.117 256.423C172.515 256.317 172.906 256.264 173.29 256.264C173.535 256.264 173.817 256.294 174.135 256.354C174.457 256.41 174.767 256.528 175.065 256.707C175.367 256.886 175.617 257.156 175.816 257.517C176.015 257.878 176.114 258.362 176.114 258.969V264H174.941V262.966H174.881C174.801 263.132 174.669 263.309 174.483 263.498C174.298 263.687 174.051 263.848 173.743 263.98C173.434 264.113 173.058 264.179 172.614 264.179ZM172.793 263.125C173.257 263.125 173.648 263.034 173.966 262.852C174.288 262.669 174.53 262.434 174.692 262.146C174.858 261.857 174.941 261.554 174.941 261.236V260.162C174.891 260.222 174.782 260.276 174.613 260.326C174.447 260.372 174.255 260.414 174.036 260.45C173.82 260.483 173.61 260.513 173.404 260.54C173.202 260.563 173.038 260.583 172.912 260.599C172.607 260.639 172.322 260.704 172.057 260.793C171.795 260.879 171.583 261.01 171.421 261.186C171.262 261.358 171.182 261.594 171.182 261.892C171.182 262.3 171.333 262.608 171.635 262.817C171.94 263.022 172.326 263.125 172.793 263.125ZM181.139 264.159C180.503 264.159 179.941 263.998 179.454 263.677C178.966 263.352 178.585 262.895 178.31 262.305C178.035 261.711 177.898 261.01 177.898 260.202C177.898 259.4 178.035 258.704 178.31 258.114C178.585 257.524 178.968 257.068 179.459 256.746C179.949 256.425 180.516 256.264 181.159 256.264C181.656 256.264 182.049 256.347 182.337 256.513C182.629 256.675 182.851 256.861 183.003 257.07C183.159 257.275 183.28 257.444 183.366 257.577H183.466V253.818H184.639V264H183.506V262.827H183.366C183.28 262.966 183.157 263.142 182.998 263.354C182.839 263.562 182.612 263.75 182.317 263.915C182.022 264.078 181.63 264.159 181.139 264.159ZM181.298 263.105C181.769 263.105 182.166 262.982 182.491 262.737C182.816 262.489 183.063 262.146 183.232 261.708C183.401 261.267 183.486 260.759 183.486 260.182C183.486 259.612 183.403 259.113 183.237 258.685C183.071 258.254 182.826 257.92 182.501 257.681C182.176 257.439 181.775 257.318 181.298 257.318C180.801 257.318 180.387 257.446 180.055 257.701C179.727 257.953 179.48 258.296 179.314 258.73C179.152 259.161 179.071 259.645 179.071 260.182C179.071 260.725 179.154 261.219 179.319 261.663C179.488 262.104 179.737 262.455 180.065 262.717C180.397 262.976 180.808 263.105 181.298 263.105ZM189.198 264.179C188.714 264.179 188.275 264.088 187.881 263.906C187.486 263.72 187.173 263.453 186.941 263.105C186.709 262.754 186.593 262.33 186.593 261.832C186.593 261.395 186.679 261.04 186.851 260.768C187.024 260.493 187.254 260.278 187.542 260.122C187.831 259.966 188.149 259.85 188.497 259.774C188.848 259.695 189.201 259.632 189.556 259.585C190.02 259.526 190.396 259.481 190.684 259.451C190.976 259.418 191.188 259.363 191.321 259.287C191.457 259.211 191.525 259.078 191.525 258.889V258.849C191.525 258.359 191.39 257.978 191.122 257.706C190.857 257.434 190.454 257.298 189.914 257.298C189.354 257.298 188.915 257.421 188.596 257.666C188.278 257.911 188.055 258.173 187.925 258.452L186.812 258.054C187.01 257.59 187.276 257.229 187.607 256.97C187.942 256.708 188.306 256.526 188.701 256.423C189.099 256.317 189.49 256.264 189.874 256.264C190.119 256.264 190.401 256.294 190.719 256.354C191.041 256.41 191.351 256.528 191.649 256.707C191.951 256.886 192.201 257.156 192.4 257.517C192.599 257.878 192.698 258.362 192.698 258.969V264H191.525V262.966H191.465C191.385 263.132 191.253 263.309 191.067 263.498C190.882 263.687 190.635 263.848 190.327 263.98C190.018 264.113 189.642 264.179 189.198 264.179ZM189.377 263.125C189.841 263.125 190.232 263.034 190.55 262.852C190.872 262.669 191.114 262.434 191.276 262.146C191.442 261.857 191.525 261.554 191.525 261.236V260.162C191.475 260.222 191.366 260.276 191.197 260.326C191.031 260.372 190.839 260.414 190.62 260.45C190.404 260.483 190.194 260.513 189.988 260.54C189.786 260.563 189.622 260.583 189.496 260.599C189.191 260.639 188.906 260.704 188.641 260.793C188.379 260.879 188.167 261.01 188.005 261.186C187.846 261.358 187.766 261.594 187.766 261.892C187.766 262.3 187.917 262.608 188.219 262.817C188.523 263.022 188.91 263.125 189.377 263.125ZM200.249 258.074L199.195 258.372C199.128 258.196 199.031 258.026 198.901 257.86C198.775 257.691 198.603 257.552 198.384 257.442C198.165 257.333 197.885 257.278 197.544 257.278C197.077 257.278 196.687 257.386 196.376 257.602C196.067 257.814 195.913 258.084 195.913 258.412C195.913 258.704 196.019 258.934 196.232 259.103C196.444 259.272 196.775 259.413 197.226 259.526L198.359 259.804C199.042 259.97 199.551 260.223 199.886 260.565C200.22 260.903 200.388 261.339 200.388 261.872C200.388 262.31 200.262 262.701 200.01 263.045C199.761 263.39 199.413 263.662 198.966 263.861C198.518 264.06 197.998 264.159 197.405 264.159C196.626 264.159 195.981 263.99 195.471 263.652C194.96 263.314 194.637 262.82 194.501 262.17L195.615 261.892C195.721 262.303 195.922 262.611 196.217 262.817C196.515 263.022 196.904 263.125 197.385 263.125C197.932 263.125 198.366 263.009 198.688 262.777C199.012 262.542 199.175 262.26 199.175 261.932C199.175 261.667 199.082 261.445 198.896 261.266C198.711 261.083 198.426 260.947 198.041 260.858L196.768 260.56C196.069 260.394 195.555 260.137 195.227 259.789C194.902 259.438 194.74 258.999 194.74 258.472C194.74 258.041 194.861 257.66 195.103 257.328C195.348 256.997 195.681 256.737 196.102 256.548C196.527 256.359 197.007 256.264 197.544 256.264C198.3 256.264 198.893 256.43 199.324 256.761C199.758 257.093 200.066 257.53 200.249 258.074Z" fill="#111C2D" fill-opacity="0.6"/>
<path d="M278.494 264.139C277.838 264.139 277.253 264.027 276.739 263.801C276.229 263.576 275.823 263.263 275.521 262.862C275.223 262.457 275.061 261.988 275.034 261.455H276.287C276.313 261.783 276.426 262.066 276.625 262.305C276.824 262.54 277.084 262.722 277.406 262.852C277.727 262.981 278.083 263.045 278.474 263.045C278.912 263.045 279.3 262.969 279.638 262.817C279.976 262.664 280.241 262.452 280.433 262.18C280.625 261.909 280.722 261.594 280.722 261.236C280.722 260.861 280.629 260.531 280.443 260.246C280.258 259.958 279.986 259.733 279.628 259.57C279.27 259.408 278.832 259.327 278.315 259.327H277.5V258.233H278.315C278.72 258.233 279.074 258.16 279.379 258.014C279.688 257.868 279.928 257.663 280.1 257.398C280.276 257.133 280.364 256.821 280.364 256.463C280.364 256.118 280.287 255.818 280.135 255.563C279.982 255.308 279.767 255.109 279.489 254.967C279.214 254.824 278.889 254.753 278.514 254.753C278.163 254.753 277.831 254.817 277.52 254.947C277.212 255.073 276.96 255.257 276.764 255.499C276.569 255.737 276.463 256.026 276.446 256.364H275.253C275.273 255.83 275.433 255.363 275.735 254.962C276.037 254.557 276.431 254.242 276.918 254.017C277.409 253.792 277.947 253.679 278.534 253.679C279.164 253.679 279.704 253.807 280.155 254.062C280.606 254.314 280.952 254.647 281.194 255.061C281.436 255.475 281.557 255.923 281.557 256.403C281.557 256.977 281.406 257.466 281.104 257.87C280.806 258.274 280.4 258.554 279.886 258.71V258.79C280.529 258.896 281.031 259.169 281.393 259.61C281.754 260.048 281.935 260.589 281.935 261.236C281.935 261.789 281.784 262.286 281.482 262.727C281.184 263.165 280.776 263.509 280.259 263.761C279.742 264.013 279.154 264.139 278.494 264.139ZM283.729 261.912V260.898L288.204 253.818H288.94V255.389H288.442L285.062 260.739V260.818H291.087V261.912H283.729ZM288.522 264V261.604V261.131V253.818H289.695V264H288.522ZM296.132 264.139C295.549 264.139 295.024 264.023 294.556 263.791C294.089 263.559 293.714 263.241 293.433 262.837C293.151 262.432 292.997 261.972 292.97 261.455H294.164C294.21 261.915 294.419 262.296 294.79 262.598C295.164 262.896 295.612 263.045 296.132 263.045C296.55 263.045 296.921 262.948 297.246 262.752C297.574 262.557 297.831 262.288 298.017 261.947C298.205 261.602 298.3 261.213 298.3 260.778C298.3 260.334 298.202 259.938 298.007 259.59C297.814 259.239 297.549 258.962 297.211 258.76C296.873 258.558 296.487 258.455 296.053 258.452C295.741 258.448 295.421 258.496 295.093 258.596C294.765 258.692 294.495 258.816 294.283 258.969L293.129 258.83L293.746 253.818H299.036V254.912H294.78L294.422 257.915H294.482C294.691 257.749 294.952 257.612 295.267 257.502C295.582 257.393 295.91 257.338 296.252 257.338C296.875 257.338 297.43 257.487 297.917 257.786C298.408 258.08 298.792 258.485 299.07 258.999C299.352 259.512 299.493 260.099 299.493 260.759C299.493 261.408 299.347 261.988 299.056 262.499C298.767 263.006 298.369 263.407 297.862 263.702C297.355 263.993 296.779 264.139 296.132 264.139Z" fill="#111C2D" fill-opacity="0.6"/>
</g>
<defs>
<filter id="filter0_d_7_2552" x="0" y="0" width="335" height="304" filterUnits="userSpaceOnUse" color-interpolation-filters="sRGB">
<feFlood flood-opacity="0" result="BackgroundImageFix"/>
<feColorMatrix in="SourceAlpha" type="matrix" values="0 0 0 0 0 0 0 0 0 0 0 0 0 0 0 0 0 0 127 0" result="hardAlpha"/>
<feOffset dy="1"/>
<feGaussianBlur stdDeviation="2"/>
<feComposite in2="hardAlpha" operator="out"/>
<feColorMatrix type="matrix" values="0 0 0 0 0.521569 0 0 0 0 0.572549 0 0 0 0 0.678431 0 0 0 0.2 0"/>
<feBlend mode="normal" in2="BackgroundImageFix" result="effect1_dropShadow_7_2552"/>
<feBlend mode="normal" in="SourceGraphic" in2="effect1_dropShadow_7_2552" result="shape"/>
</filter>
</defs>
</svg>
